<svg width="751" height="739" viewBox="0 0 751 739" fill="none" xmlns="http://www.w3.org/2000/svg">
<g opacity="0.1">
<path d="M750.642 315.039L750.722 316.845C750.819 318.73 749.361 320.325 747.481 320.416C745.607 320.513 744.001 319.066 743.91 317.181C743.904 317.027 743.904 316.862 743.91 316.72L744.063 314.92C744.217 313.114 745.812 311.77 747.629 311.929C749.287 312.06 750.551 313.421 750.642 315.039Z" fill="#152F70"/>
<path d="M750.441 346.078L750.327 347.878C750.144 350.732 747.684 352.885 744.835 352.703C741.993 352.526 739.828 350.06 740.011 347.206C740.016 347.035 740.039 346.847 740.068 346.688L740.37 344.91C740.831 342.148 743.445 340.274 746.214 340.741C748.8 341.179 750.6 343.521 750.441 346.078Z" fill="#152F70"/>
<path d="M746.82 377.054L746.513 378.843C745.909 382.403 742.514 384.813 738.942 384.209C735.376 383.599 732.955 380.216 733.571 376.639C733.611 376.445 733.645 376.24 733.696 376.063L734.157 374.303C735.074 370.84 738.618 368.772 742.087 369.689C745.345 370.549 747.367 373.773 746.82 377.054Z" fill="#152F70"/>
<path d="M739.852 407.552L739.362 409.284C738.195 413.345 733.991 415.686 729.935 414.541C725.885 413.379 723.532 409.176 724.683 405.12C724.729 404.96 724.786 404.772 724.837 404.624L725.452 402.927C726.865 398.996 731.182 396.957 735.124 398.37C738.884 399.714 740.917 403.764 739.852 407.552Z" fill="#152F70"/>
<path d="M729.684 437.224L729.017 438.876C727.246 443.205 722.324 445.29 717.995 443.524C713.666 441.758 711.587 436.831 713.347 432.501C713.393 432.393 713.45 432.262 713.495 432.16L714.241 430.531C716.184 426.315 721.179 424.47 725.4 426.401C729.502 428.298 731.364 433.077 729.684 437.224Z" fill="#152F70"/>
<path d="M716.512 465.745L715.669 467.329C713.305 471.783 707.78 473.475 703.325 471.122C698.871 468.753 697.173 463.222 699.532 458.767C699.589 458.682 699.651 458.573 699.691 458.482L700.597 456.922C703.114 452.581 708.674 451.094 713.026 453.606C717.27 456.056 718.785 461.439 716.512 465.745Z" fill="#152F70"/>
<path d="M700.307 492.711L699.298 494.198C696.393 498.533 690.515 499.683 686.191 496.772C681.868 493.85 680.717 487.983 683.628 483.654C683.651 483.608 683.719 483.528 683.736 483.494L684.773 482.019C687.775 477.764 693.653 476.739 697.914 479.735C702.112 482.691 703.155 488.473 700.307 492.711Z" fill="#152F70"/>
<path d="M681.495 517.963L680.344 519.341C676.898 523.437 670.786 523.961 666.69 520.52C662.595 517.074 662.059 510.956 665.511 506.872L666.668 505.493C670.12 501.392 676.232 500.868 680.322 504.309C684.417 507.766 684.953 513.873 681.501 517.957L681.495 517.963Z" fill="#152F70"/>
<path d="M660.01 540.97L658.7 542.211C654.889 545.783 648.908 545.589 645.331 541.779C641.868 538.065 641.964 532.3 645.468 528.689L646.732 527.418C650.395 523.659 656.41 523.596 660.153 527.265C663.912 530.922 663.986 536.937 660.312 540.679C660.227 540.782 660.113 540.896 660.01 540.97Z" fill="#152F70"/>
<path d="M636.106 561.402L634.665 562.473C630.809 565.361 625.341 564.564 622.458 560.707C619.718 557.022 620.322 551.866 623.734 548.904L625.096 547.72C628.764 544.536 634.306 544.934 637.491 548.603C640.669 552.271 640.276 557.813 636.613 560.998C636.454 561.129 636.272 561.271 636.106 561.402Z" fill="#152F70"/>
<path d="M610.127 579.009L608.584 579.926C604.989 582.057 600.358 580.872 598.228 577.283C596.223 573.911 597.18 569.576 600.301 567.315L601.76 566.25C605.172 563.783 609.951 564.552 612.412 567.97C614.884 571.388 614.109 576.15 610.697 578.628C610.509 578.759 610.315 578.884 610.127 579.009Z" fill="#152F70"/>
<path d="M582.565 593.74L580.93 594.503C577.843 595.95 574.174 594.628 572.722 591.535C571.366 588.636 572.483 585.201 575.205 583.589L576.755 582.683C579.74 580.946 583.568 581.948 585.305 584.939C587.048 587.907 586.045 591.735 583.066 593.483C582.907 593.563 582.73 593.66 582.565 593.74Z" fill="#152F70"/>
<path d="M553.832 605.725L552.14 606.334C549.611 607.245 546.826 605.947 545.914 603.406C545.037 601.014 546.199 598.365 548.483 597.328L550.124 596.588C552.608 595.46 555.524 596.565 556.652 599.049C557.768 601.544 556.669 604.46 554.18 605.588C554.066 605.633 553.946 605.685 553.832 605.725Z" fill="#152F70"/>
<path d="M524.28 615.112L522.537 615.573C520.458 616.132 518.328 614.901 517.775 612.834C517.234 610.823 518.368 608.755 520.333 608.117L522.042 607.564C524.115 606.887 526.331 608.026 526.998 610.088C527.67 612.161 526.536 614.383 524.474 615.049C524.417 615.078 524.343 615.101 524.28 615.112Z" fill="#152F70"/>
<path d="M494.111 621.93L492.34 622.249C490.545 622.574 488.825 621.378 488.5 619.578C488.181 617.801 489.344 616.115 491.092 615.756L492.847 615.391C494.652 615.015 496.424 616.171 496.794 617.977C497.159 619.777 496.002 621.543 494.197 621.913C494.18 621.919 494.128 621.93 494.111 621.93Z" fill="#152F70"/>
<path d="M463.542 626.362L461.759 626.544C459.936 626.727 458.313 625.405 458.119 623.577C457.937 621.759 459.27 620.125 461.087 619.942C461.087 619.942 461.121 619.942 461.133 619.942L462.915 619.783C464.738 619.629 466.339 620.973 466.498 622.785C466.658 624.59 465.331 626.191 463.542 626.362Z" fill="#152F70"/>
<path d="M432.524 627.706L430.724 627.672C428.713 627.615 427.124 625.958 427.169 623.953C427.209 621.931 428.873 620.353 430.883 620.393C430.929 620.398 430.986 620.398 431.026 620.398L432.82 620.512C434.808 620.637 436.318 622.341 436.198 624.329C436.078 626.26 434.449 627.752 432.524 627.706Z" fill="#152F70"/>
<path d="M401.493 624.944L399.716 624.665C397.352 624.294 395.74 622.062 396.116 619.698C396.486 617.334 398.714 615.722 401.078 616.092C401.163 616.109 401.26 616.12 401.334 616.149L403.094 616.53C405.401 617.043 406.859 619.327 406.347 621.634C405.862 623.867 403.715 625.297 401.493 624.944Z" fill="#152F70"/>
<path d="M371.002 617.96L369.287 617.43C366.456 616.57 364.861 613.585 365.733 610.737C366.598 607.923 369.589 606.329 372.426 607.183C372.551 607.229 372.682 607.274 372.813 607.32L374.482 607.969C377.199 609.034 378.538 612.099 377.484 614.822C376.464 617.425 373.616 618.758 371.002 617.96Z" fill="#152F70"/>
<path d="M341.652 606.71L340.023 605.93C336.765 604.392 335.369 600.495 336.913 597.231C338.457 593.979 342.353 592.578 345.606 594.133C345.759 594.195 345.919 594.275 346.061 594.355L347.622 595.249C350.726 597.032 351.797 600.98 350.026 604.073C348.34 607.023 344.671 608.117 341.652 606.71Z" fill="#152F70"/>
<path d="M314.094 591.233L312.596 590.237C309.036 587.878 308.073 583.088 310.443 579.533C312.795 575.973 317.597 575.01 321.146 577.369C321.311 577.477 321.482 577.602 321.636 577.716L323.048 578.827C326.375 581.43 326.962 586.255 324.353 589.57C321.881 592.754 317.386 593.409 314.094 591.233Z" fill="#152F70"/>
<path d="M289.051 571.729L287.718 570.522C284.164 567.269 283.902 561.75 287.149 558.178C290.401 554.612 295.921 554.367 299.492 557.614C299.612 557.728 299.749 557.865 299.874 557.984L301.127 559.277C304.459 562.718 304.374 568.22 300.933 571.547C297.624 574.748 292.4 574.783 289.051 571.729Z" fill="#152F70"/>
<path d="M267.205 548.529L266.083 547.133C262.808 543.06 263.463 537.108 267.53 533.849C271.597 530.563 277.55 531.218 280.819 535.296C280.893 535.387 280.99 535.501 281.064 535.604L282.135 537.051C285.217 541.249 284.322 547.145 280.13 550.226C276.052 553.217 270.35 552.436 267.205 548.529Z" fill="#152F70"/>
<path d="M249.036 522.235L248.13 520.691C245.35 515.906 246.985 509.783 251.759 507.009C256.538 504.235 262.661 505.841 265.435 510.637C265.481 510.723 265.549 510.836 265.595 510.922L266.443 512.5C269.052 517.359 267.23 523.408 262.388 526.017C257.643 528.563 251.736 526.86 249.036 522.235Z" fill="#152F70"/>
<path d="M234.925 493.457L234.259 491.783C232.105 486.4 234.737 480.282 240.12 478.134C245.509 475.987 251.626 478.607 253.774 484.002C253.814 484.087 253.865 484.224 253.899 484.332L254.514 486.012C256.474 491.458 253.66 497.468 248.214 499.427C242.888 501.358 237.016 498.681 234.925 493.457Z" fill="#152F70"/>
<path d="M225.184 462.851L224.774 461.091C223.396 455.207 227.053 449.323 232.943 447.938C238.827 446.566 244.723 450.217 246.095 456.113C246.107 456.187 246.141 456.306 246.158 456.38L246.517 458.14C247.742 464.053 243.936 469.84 238.029 471.059C232.219 472.256 226.523 468.599 225.184 462.851Z" fill="#152F70"/>
<path d="M220.038 431.049L219.89 429.255C219.372 423.012 224.014 417.532 230.252 417.025C236.495 416.501 241.969 421.149 242.487 427.381C242.499 427.466 242.499 427.597 242.51 427.677L242.612 429.466C242.966 435.709 238.198 441.052 231.96 441.416C225.826 441.764 220.545 437.133 220.038 431.049Z" fill="#152F70"/>
<path d="M220.874 398.022L221.136 396.239C222.042 389.922 227.903 385.536 234.215 386.436C240.537 387.347 244.923 393.209 244.012 399.52L243.995 399.64L243.722 401.411C242.747 407.723 236.852 412.046 230.546 411.072C224.292 410.115 219.985 404.288 220.874 398.022Z" fill="#152F70"/>
<path d="M229.114 366.009L229.758 364.34C232.065 358.393 238.741 355.431 244.693 357.733C250.635 360.028 253.608 366.687 251.312 372.628L250.675 374.297C248.39 380.244 241.714 383.235 235.762 380.951C229.803 378.672 226.83 371.99 229.103 366.038L229.114 366.009Z" fill="#152F70"/>
<path d="M244.288 336.696L245.29 335.204C248.782 330.043 255.811 328.676 260.972 332.168C266.087 335.626 267.471 342.541 264.116 347.69L263.142 349.194C259.73 354.435 252.724 355.916 247.483 352.515C242.243 349.103 240.767 342.096 244.174 336.867C244.202 336.816 244.259 336.731 244.288 336.696Z" fill="#152F70"/>
<path d="M265.528 311.542L266.838 310.311C271.213 306.204 278.071 306.432 282.172 310.807C286.188 315.085 286.046 321.789 281.916 325.908L280.64 327.172C276.379 331.416 269.498 331.405 265.254 327.15C261.016 322.9 261.028 316.008 265.277 311.77C265.351 311.707 265.454 311.604 265.528 311.542Z" fill="#152F70"/>
<path d="M517.057 16.5728L518.669 17.3988C520.344 18.2532 521.005 20.3209 520.139 21.9956C519.279 23.6703 517.222 24.3368 515.542 23.4709C515.405 23.4026 515.263 23.3172 515.143 23.2317L513.668 22.2007C512.175 21.164 511.805 19.1077 512.853 17.6209C513.805 16.2538 515.61 15.8323 517.057 16.5728Z" fill="#152F70"/>
<path d="M543.836 32.2602L545.34 33.2628C547.721 34.8464 548.365 38.0533 546.776 40.4343C545.198 42.8097 541.979 43.4477 539.598 41.8641C539.467 41.7616 539.319 41.6647 539.188 41.5508L537.798 40.4002C535.634 38.6173 535.326 35.4216 537.103 33.2514C538.778 31.2349 541.706 30.8476 543.836 32.2602Z" fill="#152F70"/>
<path d="M568.849 50.8812L570.244 52.0433C573.041 54.3503 573.428 58.4914 571.11 61.2826C568.797 64.068 564.662 64.4725 561.871 62.1541C561.728 62.0231 561.563 61.8864 561.427 61.761L560.145 60.4794C557.599 57.956 557.587 53.8547 560.111 51.3141C562.492 48.916 566.297 48.7736 568.849 50.8812Z" fill="#152F70"/>
<path d="M591.787 72.1683L593.04 73.4614C595.973 76.4975 595.894 81.3165 592.869 84.2501C589.85 87.1836 585.037 87.1096 582.092 84.0849C581.972 83.9653 581.847 83.8343 581.738 83.7033L580.582 82.3191C577.882 79.1349 578.286 74.3671 581.465 71.667C584.512 69.0866 589.035 69.3543 591.787 72.1683Z" fill="#152F70"/>
<path d="M612.396 95.8133L613.496 97.2146C616.355 100.906 615.694 106.215 612.009 109.08C608.329 111.951 603.009 111.29 600.144 107.593C600.075 107.508 599.99 107.382 599.916 107.297L598.89 105.839C596.207 102.039 597.102 96.7931 600.901 94.1101C604.575 91.5069 609.651 92.2873 612.396 95.8133Z" fill="#152F70"/>
<path d="M630.513 121.481L631.47 123.002C634.142 127.28 632.843 132.907 628.571 135.59C624.304 138.25 618.665 136.969 615.988 132.691C615.942 132.6 615.868 132.486 615.823 132.406L614.928 130.845C612.416 126.493 613.914 120.928 618.266 118.416C622.504 115.984 627.927 117.357 630.513 121.481Z" fill="#152F70"/>
<path d="M645.761 148.999L646.547 150.611C648.842 155.294 646.906 160.961 642.212 163.257C637.53 165.536 631.873 163.604 629.578 158.911C629.555 158.877 629.515 158.774 629.492 158.74L628.74 157.099C626.547 152.377 628.598 146.772 633.332 144.573C637.991 142.432 643.511 144.414 645.761 148.999Z" fill="#152F70"/>
<path d="M658.233 177.908L658.843 179.6C660.66 184.629 658.062 190.183 653.032 192.023C648.003 193.84 642.443 191.237 640.615 186.207L640.005 184.521C638.177 179.491 640.785 173.932 645.81 172.103C650.845 170.269 656.405 172.878 658.233 177.908Z" fill="#152F70"/>
<path d="M667.42 208.024L667.831 209.773C669.015 214.859 665.854 219.946 660.773 221.125C655.829 222.281 650.879 219.308 649.517 214.478L649.033 212.74C647.615 207.699 650.565 202.453 655.607 201.04C660.659 199.622 665.905 202.567 667.318 207.614C667.346 207.739 667.386 207.898 667.42 208.024Z" fill="#152F70"/>
<path d="M673.149 238.937L673.365 240.726C673.935 245.505 670.511 249.846 665.726 250.415C661.169 250.951 657.011 247.841 656.14 243.409L655.803 241.649C654.881 236.881 657.991 232.273 662.764 231.35C667.521 230.427 672.135 233.537 673.063 238.305C673.086 238.504 673.126 238.732 673.149 238.937Z" fill="#152F70"/>
<path d="M675.408 270.238L675.431 272.038C675.476 276.208 672.138 279.631 667.963 279.688C664.038 279.734 660.769 276.743 660.364 272.91L660.182 271.116C659.755 266.923 662.796 263.181 666.995 262.748C671.187 262.32 674.935 265.362 675.368 269.56C675.385 269.783 675.402 270.016 675.408 270.238Z" fill="#152F70"/>
<path d="M674.385 301.477L674.237 303.276C673.941 306.666 670.956 309.184 667.561 308.887C664.366 308.614 661.951 305.925 661.922 302.775L661.911 300.987C661.894 297.523 664.679 294.715 668.131 294.692C671.583 294.675 674.391 297.449 674.42 300.913C674.408 301.101 674.403 301.3 674.385 301.477Z" fill="#152F70"/>
<path d="M670.404 332.35L670.091 334.122C669.618 336.77 667.095 338.531 664.446 338.058C661.934 337.614 660.22 335.284 660.459 332.795L660.641 331C660.903 328.283 663.324 326.306 666.035 326.58C668.747 326.848 670.729 329.263 670.461 331.98C670.444 332.105 670.427 332.236 670.404 332.35Z" fill="#152F70"/>
<path d="M663.762 362.637L663.283 364.38C662.731 366.459 660.6 367.69 658.527 367.131C656.522 366.602 655.297 364.568 655.719 362.563L656.1 360.803C656.55 358.673 658.646 357.323 660.771 357.773C662.896 358.228 664.257 360.324 663.796 362.443C663.79 362.5 663.773 362.586 663.762 362.637Z" fill="#152F70"/>
<path d="M654.579 392.184L653.975 393.87C653.354 395.584 651.458 396.478 649.732 395.863C648.04 395.259 647.151 393.397 647.709 391.705L648.279 390.002C648.86 388.247 650.746 387.302 652.494 387.883C654.237 388.47 655.189 390.355 654.613 392.098C654.602 392.115 654.591 392.161 654.579 392.184Z" fill="#152F70"/>
<path d="M643.132 420.87L642.398 422.51C641.64 424.179 639.68 424.914 638.011 424.168C636.348 423.416 635.602 421.451 636.354 419.788L636.371 419.748L637.14 418.119C637.909 416.461 639.868 415.743 641.52 416.524C643.149 417.287 643.861 419.229 643.132 420.87Z" fill="#152F70"/>
<path d="M628.777 448.394L627.848 449.938C626.8 451.664 624.561 452.194 622.852 451.157C621.132 450.114 620.591 447.881 621.628 446.161C621.651 446.127 621.685 446.076 621.707 446.042L622.699 444.544C623.787 442.886 626.02 442.424 627.677 443.53C629.312 444.595 629.779 446.754 628.777 448.394Z" fill="#152F70"/>
<path d="M610.872 473.896L609.744 475.286C608.235 477.137 605.506 477.434 603.649 475.918C601.792 474.415 601.502 471.68 603.011 469.823C603.062 469.755 603.131 469.675 603.182 469.624L604.39 468.291C605.996 466.554 608.702 466.428 610.45 468.029C612.125 469.567 612.285 472.147 610.872 473.896Z" fill="#152F70"/>
<path d="M589.582 496.801L588.266 498.02C586.101 500.053 582.718 499.939 580.696 497.763C578.679 495.599 578.805 492.21 580.958 490.193C581.055 490.102 581.157 490.017 581.265 489.926L582.672 488.809C584.945 486.981 588.272 487.356 590.1 489.635C591.843 491.811 591.57 494.944 589.582 496.801Z" fill="#152F70"/>
<path d="M565.162 516.595L563.669 517.621C560.719 519.671 556.646 518.937 554.595 515.969C552.527 513.001 553.279 508.928 556.241 506.889C556.378 506.786 556.532 506.69 556.668 506.604L558.224 505.704C561.317 503.898 565.276 504.946 567.07 508.028C568.773 510.956 567.884 514.693 565.162 516.595Z" fill="#152F70"/>
<path d="M537.978 532.733L536.366 533.536C532.544 535.427 527.913 533.872 526.016 530.038C524.125 526.222 525.68 521.597 529.502 519.694C529.684 519.609 529.872 519.518 530.049 519.438L531.724 518.771C535.637 517.193 540.103 519.102 541.675 523.015C543.184 526.74 541.504 530.961 537.978 532.733Z" fill="#152F70"/>
<path d="M508.57 544.661L506.85 545.219C502.253 546.672 497.349 544.131 495.879 539.534C494.421 534.926 496.961 530.021 501.558 528.557C501.723 528.512 501.911 528.461 502.082 528.421L503.825 527.982C508.473 526.809 513.19 529.628 514.358 534.276C515.474 538.737 512.894 543.282 508.57 544.661Z" fill="#152F70"/>
<path d="M477.556 551.986L475.779 552.26C470.618 553.057 465.788 549.52 464.99 544.359C464.193 539.198 467.73 534.362 472.897 533.576C473.016 533.553 473.17 533.53 473.296 533.519L475.084 533.314C480.251 532.738 484.916 536.469 485.48 541.636C486.044 546.666 482.506 551.211 477.556 551.986Z" fill="#152F70"/>
<path d="M445.697 554.567L443.897 554.578C438.372 554.589 433.877 550.112 433.866 544.587C433.855 539.061 438.315 534.567 443.852 534.556C443.943 534.556 444.079 534.556 444.176 534.556L445.971 534.613C451.484 534.784 455.814 539.386 455.643 544.894C455.483 550.283 451.057 554.544 445.697 554.567Z" fill="#152F70"/>
<path d="M413.718 552.408L411.935 552.146C406.193 551.314 402.211 545.982 403.048 540.24C403.88 534.493 409.212 530.517 414.954 531.354C415.05 531.366 415.199 531.394 415.295 531.417L417.061 531.719C422.757 532.75 426.551 538.184 425.537 543.892C424.54 549.457 419.288 553.205 413.718 552.408Z" fill="#152F70"/>
<path d="M382.342 545.532L380.622 545.008C374.829 543.254 371.559 537.147 373.319 531.36C375.062 525.573 381.18 522.297 386.968 524.063C387.042 524.08 387.161 524.114 387.23 524.143L388.939 524.707C394.669 526.604 397.773 532.796 395.877 538.509C394.014 544.148 387.987 547.236 382.342 545.532Z" fill="#152F70"/>
<path d="M352.227 534.088L350.603 533.314C344.941 530.648 342.514 523.886 345.186 518.23C347.858 512.562 354.619 510.136 360.275 512.813C360.344 512.841 360.463 512.904 360.537 512.933L362.144 513.747C367.72 516.561 369.97 523.362 367.156 528.945C364.399 534.43 357.758 536.692 352.227 534.088Z" fill="#152F70"/>
<path d="M324.045 516.852L322.633 515.735C317.62 511.805 316.743 504.536 320.684 499.512C324.632 494.483 331.895 493.617 336.919 497.559L337.016 497.644L338.417 498.766C343.39 502.759 344.187 510.028 340.2 515.006C336.224 519.939 329.018 520.748 324.045 516.852Z" fill="#152F70"/>
<path d="M300.436 493.708L299.308 492.318C295.315 487.345 296.089 480.077 301.056 476.078C306.018 472.085 313.264 472.842 317.268 477.793L318.39 479.182C322.406 484.138 321.648 491.406 316.693 495.428C311.737 499.444 304.469 498.686 300.453 493.736L300.436 493.708Z" fill="#152F70"/>
<path d="M282.635 465.904L281.843 464.292C279.115 458.687 281.445 451.914 287.055 449.186C292.604 446.48 299.28 448.753 302.071 454.233L302.885 455.833C305.716 461.404 303.501 468.206 297.93 471.043C292.353 473.879 285.546 471.652 282.721 466.087C282.703 466.041 282.658 465.95 282.635 465.904Z" fill="#152F70"/>
<path d="M271.465 434.945L271.061 433.191C269.694 427.352 273.311 421.513 279.149 420.152C284.874 418.813 290.605 422.288 292.103 427.922L292.564 429.659C294.108 435.469 290.656 441.422 284.851 442.971C279.047 444.515 273.089 441.069 271.545 435.27C271.528 435.173 271.488 435.031 271.465 434.945Z" fill="#152F70"/>
<path d="M141.791 69.6277L143.306 68.6479C144.884 67.6169 147.003 68.0783 148.028 69.6676C149.048 71.2454 148.598 73.3587 147.009 74.3841C146.878 74.4638 146.735 74.5493 146.604 74.6062L144.969 75.3752C143.323 76.1499 141.358 75.4379 140.589 73.7916C139.888 72.2821 140.424 70.5106 141.791 69.6277Z" fill="#152F70"/>
<path d="M168.776 54.2706L170.394 53.4731C172.951 52.2029 176.056 53.2511 177.32 55.8144C178.591 58.372 177.531 61.4764 174.974 62.7467C174.82 62.815 174.655 62.8891 174.495 62.9461L172.809 63.584C170.177 64.5638 167.255 63.2251 166.27 60.6048C165.347 58.1441 166.475 55.4156 168.776 54.2706Z" fill="#152F70"/>
<path d="M197.398 41.9213L199.102 41.2947C202.497 40.0301 206.273 41.7675 207.538 45.1624C208.797 48.5574 207.071 52.3398 203.67 53.6043C203.482 53.667 203.288 53.7296 203.106 53.7808L201.357 54.2537C197.9 55.1936 194.34 53.1542 193.405 49.7023C192.517 46.4441 194.3 43.089 197.398 41.9213Z" fill="#152F70"/>
<path d="M227.305 32.7046L229.054 32.266C233.144 31.2464 237.285 33.7186 238.316 37.8028C239.341 41.887 236.869 46.0281 232.779 47.0535C232.62 47.099 232.438 47.1446 232.272 47.1731L230.495 47.4864C226.388 48.2269 222.458 45.4984 221.712 41.3914C221.005 37.4609 223.494 33.6787 227.305 32.7046Z" fill="#152F70"/>
<path d="M258.084 26.6781L259.85 26.4274C264.481 25.8009 268.747 29.0193 269.385 33.6503C270.023 38.2814 266.793 42.5421 262.168 43.1858C262.054 43.2029 261.906 43.2201 261.798 43.2314L260.015 43.3852C255.384 43.8181 251.288 40.4175 250.861 35.7921C250.445 31.2978 253.658 27.2933 258.084 26.6781Z" fill="#152F70"/>
<path d="M289.368 23.83L291.169 23.7616C296.204 23.585 300.436 27.5211 300.619 32.5566C300.795 37.5921 296.865 41.8301 291.818 42.0067C291.715 42.0067 291.584 42.0124 291.488 42.0124H289.687C284.669 42.0067 280.591 37.9339 280.591 32.9098C280.602 28.011 284.504 24.0066 289.368 23.83Z" fill="#152F70"/>
<path d="M320.825 24.3767L322.62 24.502C327.82 24.8495 331.756 29.3666 331.398 34.5787C331.033 39.7794 326.527 43.7041 321.321 43.3566C321.275 43.3509 321.179 43.3396 321.133 43.3396L319.339 43.1801C314.155 42.7073 310.333 38.1332 310.789 32.9382C311.25 27.823 315.727 24.0292 320.825 24.3767Z" fill="#152F70"/>
<path d="M352.102 28.0338L353.873 28.3471C359.137 29.287 362.646 34.3167 361.717 39.5858C360.783 44.8491 355.753 48.3694 350.478 47.4296L348.707 47.1162C343.438 46.182 339.923 41.1466 340.857 35.8832C341.797 30.6085 346.827 27.0996 352.085 28.0338H352.102Z" fill="#152F70"/>
<path d="M382.772 35.1369L384.492 35.6553C389.488 37.1762 392.313 42.4566 390.792 47.4465C389.322 52.3054 384.27 55.1023 379.405 53.8719L377.662 53.4162C372.587 52.1175 369.517 46.9509 370.815 41.8699C372.108 36.7831 377.281 33.7129 382.362 35.0173C382.487 35.0458 382.647 35.0971 382.772 35.1369Z" fill="#152F70"/>
<path d="M412.41 45.6352L414.062 46.3472C418.488 48.2441 420.533 53.3707 418.636 57.7967C416.824 62.0119 412.045 64.0626 407.779 62.5986L406.076 62.0062C401.49 60.4226 399.052 55.4214 400.641 50.8302C402.225 46.2447 407.226 43.8067 411.817 45.3903C412.005 45.47 412.216 45.5498 412.41 45.6352Z" fill="#152F70"/>
<path d="M440.653 59.3234L442.219 60.2063C445.865 62.2513 447.152 66.8538 445.113 70.4937C443.188 73.9172 438.961 75.2501 435.441 73.6893L433.795 72.9602C429.95 71.2342 428.229 66.7171 429.95 62.8722C431.675 59.0215 436.193 57.3069 440.038 59.0272C440.243 59.1069 440.453 59.2152 440.653 59.3234Z" fill="#152F70"/>
<path d="M467.187 75.831L468.662 76.862C471.453 78.8101 472.143 82.655 470.189 85.4519C468.355 88.0779 464.817 88.8241 462.072 87.2804L460.517 86.3861C457.509 84.6715 456.466 80.8607 458.17 77.8531C459.879 74.8569 463.695 73.8088 466.703 75.5177C466.874 75.6259 467.044 75.7227 467.187 75.831Z" fill="#152F70"/>
<path d="M491.938 94.714L493.316 95.876C495.367 97.6134 495.635 100.672 493.903 102.734C492.257 104.688 489.386 105.013 487.347 103.549L485.883 102.501C483.661 100.912 483.165 97.8299 484.755 95.6083C486.344 93.4039 489.426 92.8912 491.641 94.4861C491.738 94.5545 491.841 94.64 491.938 94.714Z" fill="#152F70"/>
<path d="M514.845 115.614L516.127 116.895C517.653 118.41 517.653 120.877 516.127 122.392C514.663 123.867 512.293 123.913 510.766 122.535L509.434 121.327C507.81 119.874 507.69 117.385 509.143 115.762C510.596 114.15 513.085 114.019 514.703 115.477C514.742 115.517 514.799 115.574 514.845 115.614Z" fill="#152F70"/>
<path d="M535.838 138.336L536.995 139.703C538.174 141.104 537.991 143.195 536.59 144.368C535.223 145.53 533.172 145.376 531.988 144.038L530.791 142.694C529.572 141.321 529.692 139.213 531.071 137.988C532.449 136.769 534.551 136.895 535.781 138.256C535.793 138.285 535.816 138.313 535.838 138.336Z" fill="#152F70"/>
<path d="M554.956 162.596L556.015 164.055C557.075 165.536 556.738 167.609 555.257 168.68C553.771 169.751 551.703 169.415 550.632 167.922L550.604 167.888L549.573 166.413C548.519 164.926 548.883 162.864 550.387 161.822C551.862 160.779 553.902 161.138 554.956 162.596Z" fill="#152F70"/>
<path d="M571.628 188.776L572.483 190.36C573.457 192.12 572.807 194.33 571.042 195.293C569.281 196.261 567.083 195.617 566.103 193.852C566.092 193.812 566.057 193.761 566.046 193.721L565.231 192.114C564.343 190.331 565.072 188.167 566.855 187.284C568.592 186.424 570.694 187.09 571.628 188.776Z" fill="#152F70"/>
<path d="M584.746 217.035L585.389 218.716C586.249 220.954 585.133 223.461 582.894 224.321C580.662 225.175 578.144 224.065 577.289 221.815C577.255 221.741 577.221 221.644 577.204 221.564L576.663 219.855C575.945 217.599 577.204 215.195 579.46 214.489C581.63 213.8 583.948 214.939 584.746 217.035Z" fill="#152F70"/>
<path d="M593.949 246.935L594.347 248.689C595.02 251.572 593.225 254.448 590.332 255.109C587.461 255.776 584.584 253.976 583.918 251.093C583.884 250.974 583.855 250.831 583.838 250.7L583.57 248.929C583.132 246.041 585.108 243.346 587.996 242.902C590.753 242.475 593.334 244.269 593.949 246.935Z" fill="#152F70"/>
<path d="M598.871 277.979L599.013 279.774C599.315 283.362 596.638 286.524 593.038 286.814C589.438 287.116 586.282 284.428 585.997 280.845C585.98 280.674 585.974 280.497 585.974 280.338L585.963 278.532C585.957 274.955 588.834 272.061 592.405 272.05C595.8 272.027 598.592 274.664 598.871 277.979Z" fill="#152F70"/>
<path d="M599.253 309.582L599.139 311.377C598.877 315.632 595.203 318.861 590.948 318.594C586.693 318.332 583.457 314.663 583.725 310.403C583.737 310.203 583.754 309.992 583.776 309.81L584.039 308.027C584.631 303.84 588.51 300.924 592.685 301.522C596.673 302.086 599.492 305.64 599.253 309.582Z" fill="#152F70"/>
<path d="M594.883 341.026L594.508 342.78C593.465 347.496 588.817 350.476 584.1 349.445C579.378 348.414 576.405 343.754 577.442 339.038C577.47 338.867 577.521 338.69 577.567 338.519L578.057 336.793C579.373 332.179 584.174 329.508 588.783 330.818C593.214 332.077 595.857 336.588 594.883 341.026Z" fill="#152F70"/>
<path d="M585.719 371.54L585.064 373.209C583.178 378.08 577.693 380.484 572.834 378.598C567.969 376.718 565.554 371.239 567.451 366.363C567.491 366.249 567.542 366.112 567.593 366.004L568.322 364.34C570.413 359.578 575.955 357.414 580.729 359.499C585.348 361.532 587.519 366.864 585.719 371.54Z" fill="#152F70"/>
<path d="M572.029 400.415L571.141 401.981C568.389 406.772 562.266 408.424 557.475 405.672C552.685 402.921 551.021 396.798 553.778 392.013C553.83 391.927 553.898 391.813 553.944 391.728L554.889 390.201C557.789 385.513 563.946 384.061 568.634 386.966C573.214 389.803 574.678 395.767 572.029 400.415Z" fill="#152F70"/>
<path d="M554.159 427.033L553.049 428.44C549.46 432.997 542.852 433.772 538.295 430.195C533.738 426.6 532.952 419.993 536.547 415.436C536.609 415.35 536.695 415.248 536.769 415.168L537.925 413.795C541.662 409.369 548.264 408.805 552.695 412.542C557.03 416.188 557.645 422.613 554.159 427.033Z" fill="#152F70"/>
<path d="M532.526 450.775L531.21 452C526.801 456.141 519.875 455.925 515.739 451.499C511.598 447.095 511.82 440.169 516.241 436.028C516.298 435.976 516.389 435.891 516.446 435.845L517.796 434.649C522.29 430.633 529.205 431.032 533.21 435.538C537.151 439.964 536.833 446.742 532.526 450.775Z" fill="#152F70"/>
<path d="M507.559 471.128L506.078 472.148C500.946 475.719 493.871 474.437 490.305 469.299C486.745 464.156 488.015 457.081 493.164 453.515C493.227 453.47 493.341 453.401 493.404 453.361L494.908 452.364C500.125 448.935 507.143 450.394 510.567 455.623C513.939 460.755 512.577 467.642 507.559 471.128Z" fill="#152F70"/>
<path d="M478.535 486.918L476.866 487.579C470.948 489.96 464.215 487.077 461.84 481.148C459.464 475.224 462.341 468.496 468.276 466.121L468.39 466.081L470.065 465.426C476.012 463.113 482.699 466.058 485.012 472.005C487.302 477.906 484.403 484.56 478.535 486.918Z" fill="#152F70"/>
<path d="M446.694 495.793L444.923 496.072C438.617 497.046 432.716 492.739 431.736 486.445C430.756 480.151 435.034 474.244 441.329 473.258L443.1 472.991C449.4 471.982 455.324 476.272 456.321 482.577C457.318 488.866 453.029 494.79 446.734 495.793H446.694Z" fill="#152F70"/>
<path d="M413.717 497.302L411.928 497.183C405.702 496.744 401.008 491.338 401.453 485.124C401.886 478.966 407.189 474.312 413.329 474.637L415.118 474.734C421.361 475.064 426.146 480.384 425.816 486.628C425.485 492.876 420.159 497.661 413.922 497.319C413.859 497.314 413.757 497.314 413.717 497.302Z" fill="#152F70"/>
<path d="M381.315 491.492L379.595 490.962C373.859 489.236 370.618 483.176 372.355 477.451C374.053 471.817 379.937 468.593 385.559 470.103L387.291 470.576C393.095 472.142 396.53 478.112 394.969 483.911C393.403 489.721 387.433 493.15 381.64 491.583C381.549 491.56 381.406 491.521 381.315 491.492Z" fill="#152F70"/>
<path d="M0.101894 421.143L0.00505622 419.338C-0.0974763 417.464 1.37215 415.863 3.25192 415.772C5.13168 415.664 6.73802 417.116 6.82916 419.007C6.83486 419.15 6.83486 419.326 6.82347 419.469L6.66967 421.257C6.52157 423.069 4.92092 424.413 3.11521 424.253C1.4519 424.117 0.181641 422.755 0.101894 421.143Z" fill="#152F70"/>
<path d="M0.286984 390.099L0.406616 388.31C0.588896 385.451 3.04397 383.297 5.89779 383.474C8.74592 383.651 10.9048 386.128 10.7225 388.977C10.7054 389.136 10.694 389.324 10.6599 389.495L10.3637 391.278C9.90226 394.041 7.28198 395.909 4.5193 395.448C1.9332 395.003 0.133186 392.656 0.286984 390.099Z" fill="#152F70"/>
<path d="M3.91397 359.14L4.22156 357.345C4.82536 353.78 8.22033 351.37 11.7862 351.979C15.3634 352.589 17.7729 355.973 17.1634 359.55C17.1293 359.738 17.0837 359.943 17.0381 360.125L16.5767 361.885C15.6596 365.349 12.1166 367.411 8.65324 366.494C5.39499 365.628 3.37283 362.404 3.91397 359.14Z" fill="#152F70"/>
<path d="M10.8853 328.625L11.3808 326.899C12.5429 322.843 16.7524 320.496 20.8024 321.647C24.8468 322.798 27.1993 327.013 26.0487 331.063C26.0088 331.228 25.9518 331.405 25.8949 331.564L25.2797 333.256C23.8727 337.192 19.5379 339.22 15.6131 337.819C11.8479 336.469 9.82006 332.419 10.8853 328.625Z" fill="#152F70"/>
<path d="M21.0541 298.953L21.7263 297.313C23.4921 292.983 28.4137 290.887 32.7428 292.659C37.0777 294.419 39.1511 299.346 37.391 303.681C37.3568 303.789 37.2941 303.92 37.2485 304.028L36.4909 305.646C34.5485 309.873 29.5586 311.724 25.3377 309.782C21.2364 307.885 19.3737 303.094 21.0541 298.953Z" fill="#152F70"/>
<path d="M34.2316 270.443L35.069 268.848C37.4329 264.394 42.9583 262.702 47.4128 265.06C51.8615 267.43 53.559 272.955 51.1951 277.41C51.1495 277.501 51.0868 277.609 51.0356 277.695L50.1356 279.261C47.6235 283.602 42.0526 285.089 37.7007 282.582C33.4627 280.116 31.9474 274.738 34.2316 270.443Z" fill="#152F70"/>
<path d="M50.4304 243.472L51.4386 241.973C54.338 237.656 60.2222 236.499 64.5514 239.41C68.8748 242.332 70.0255 248.194 67.1147 252.529C67.0919 252.557 67.0349 252.648 67.0064 252.688L65.9697 254.163C62.9678 258.419 57.0893 259.438 52.8228 256.442C48.6303 253.491 47.5822 247.71 50.4304 243.472Z" fill="#152F70"/>
<path d="M69.236 218.203L70.3923 216.836C73.8328 212.74 79.9506 212.216 84.0462 215.651C88.1418 219.103 88.6716 225.221 85.2196 229.311L84.069 230.683C80.6228 234.779 74.505 235.315 70.4151 231.868C66.3138 228.422 65.7897 222.31 69.2303 218.22L69.236 218.203Z" fill="#152F70"/>
<path d="M90.7228 195.196L92.0272 193.966C95.8437 190.405 101.825 190.593 105.396 194.41C108.865 198.112 108.763 203.883 105.265 207.483L104.006 208.764C100.338 212.518 94.3342 212.587 90.5803 208.918C86.8265 205.25 86.7582 199.24 90.4209 195.492C90.5063 195.401 90.6259 195.287 90.7228 195.196Z" fill="#152F70"/>
<path d="M114.637 174.786L116.072 173.71C119.934 170.822 125.397 171.619 128.285 175.475C131.03 179.155 130.421 184.31 127.009 187.278L125.647 188.463C121.979 191.636 116.437 191.248 113.252 187.586C110.068 183.917 110.461 178.363 114.124 175.185C114.289 175.054 114.466 174.906 114.637 174.786Z" fill="#152F70"/>
<path d="M140.613 157.173L142.157 156.251C145.751 154.126 150.382 155.299 152.512 158.888C154.517 162.277 153.56 166.601 150.445 168.874L148.986 169.927C145.569 172.4 140.801 171.636 138.334 168.213C135.856 164.789 136.631 160.022 140.043 157.549C140.22 157.418 140.419 157.287 140.613 157.173Z" fill="#152F70"/>
<path d="M168.18 142.437L169.809 141.668C172.891 140.233 176.565 141.554 178.012 144.647C179.373 147.558 178.251 150.993 175.539 152.594L173.99 153.499C171 155.242 167.177 154.234 165.429 151.255C163.686 148.276 164.694 144.454 167.673 142.705C167.832 142.614 168.003 142.517 168.18 142.437Z" fill="#152F70"/>
<path d="M196.9 130.452L198.586 129.843C201.121 128.932 203.907 130.236 204.824 132.765C205.69 135.163 204.533 137.812 202.249 138.849L200.609 139.584C198.125 140.711 195.209 139.606 194.081 137.123C192.964 134.639 194.064 131.723 196.553 130.595C196.661 130.544 196.786 130.498 196.9 130.452Z" fill="#152F70"/>
<path d="M226.455 121.059L228.198 120.598C230.283 120.034 232.407 121.27 232.965 123.343C233.507 125.36 232.367 127.428 230.414 128.06L228.699 128.612C226.626 129.29 224.41 128.157 223.738 126.078C223.065 124.016 224.199 121.8 226.272 121.122C226.324 121.105 226.398 121.082 226.455 121.059Z" fill="#152F70"/>
<path d="M256.624 114.241L258.395 113.928C260.19 113.609 261.91 114.805 262.234 116.605C262.559 118.371 261.397 120.068 259.648 120.433L257.888 120.797C256.083 121.162 254.317 120.011 253.946 118.205C253.576 116.405 254.732 114.64 256.538 114.264C256.561 114.252 256.601 114.247 256.624 114.241Z" fill="#152F70"/>
<path d="M287.193 109.809L288.988 109.621C290.805 109.445 292.428 110.772 292.622 112.6C292.804 114.412 291.471 116.041 289.654 116.229C289.643 116.223 289.614 116.229 289.614 116.229L287.814 116.388C286.003 116.548 284.396 115.209 284.243 113.387C284.077 111.587 285.41 109.997 287.193 109.809Z" fill="#152F70"/>
<path d="M318.211 108.47L320.011 108.51C322.022 108.556 323.611 110.219 323.56 112.23C323.526 114.246 321.857 115.824 319.846 115.784C319.812 115.779 319.749 115.779 319.709 115.779L317.915 115.676C315.933 115.556 314.412 113.848 314.543 111.86C314.651 109.917 316.292 108.436 318.211 108.47Z" fill="#152F70"/>
<path d="M349.248 111.233L351.025 111.518C353.389 111.894 355.001 114.121 354.625 116.479C354.255 118.843 352.028 120.461 349.664 120.085C349.579 120.068 349.482 120.057 349.402 120.034L347.642 119.652C345.335 119.14 343.877 116.85 344.384 114.537C344.879 112.31 347.021 110.88 349.248 111.233Z" fill="#152F70"/>
<path d="M379.732 118.217L381.447 118.735C384.284 119.601 385.873 122.592 385.007 125.428C384.147 128.254 381.151 129.843 378.32 128.983C378.194 128.949 378.063 128.903 377.932 128.857L376.263 128.208C373.54 127.137 372.202 124.067 373.261 121.355C374.27 118.752 377.118 117.419 379.732 118.217Z" fill="#152F70"/>
<path d="M409.083 129.478L410.712 130.247C413.97 131.785 415.371 135.681 413.822 138.945C412.284 142.209 408.382 143.594 405.13 142.044C404.981 141.982 404.816 141.902 404.68 141.816L403.113 140.916C400.02 139.139 398.938 135.197 400.721 132.104C402.401 129.159 406.069 128.06 409.083 129.478Z" fill="#152F70"/>
<path d="M436.648 144.938L438.146 145.94C441.701 148.304 442.663 153.089 440.299 156.644C437.941 160.198 433.151 161.167 429.591 158.803C429.425 158.694 429.254 158.58 429.101 158.461L427.688 157.344C424.356 154.741 423.769 149.922 426.384 146.596C428.861 143.428 433.35 142.768 436.648 144.938Z" fill="#152F70"/>
<path d="M461.681 164.448L463.014 165.655C466.58 168.908 466.836 174.427 463.583 177.999C460.331 181.559 454.805 181.815 451.245 178.569C451.12 178.455 450.983 178.318 450.858 178.193L449.605 176.9C446.272 173.453 446.358 167.962 449.798 164.636C453.108 161.429 458.331 161.394 461.681 164.448Z" fill="#152F70"/>
<path d="M483.532 187.654L484.654 189.055C487.924 193.122 487.269 199.075 483.207 202.339C479.14 205.614 473.188 204.971 469.912 200.892C469.838 200.795 469.736 200.681 469.673 200.573L468.602 199.126C465.526 194.945 466.426 189.044 470.613 185.962C474.68 182.96 480.388 183.746 483.532 187.654Z" fill="#152F70"/>
<path d="M501.692 213.942L502.604 215.497C505.383 220.282 503.749 226.406 498.969 229.18C494.196 231.954 488.067 230.33 485.298 225.546C485.247 225.466 485.179 225.346 485.133 225.266L484.285 223.683C481.67 218.824 483.493 212.775 488.346 210.166C493.102 207.614 498.998 209.323 501.692 213.942Z" fill="#152F70"/>
<path d="M515.814 242.714L516.481 244.394C518.634 249.772 516.008 255.889 510.613 258.043C505.23 260.19 499.107 257.564 496.965 252.175C496.937 252.079 496.885 251.948 496.846 251.845L496.225 250.153C494.265 244.713 497.079 238.704 502.53 236.739C507.851 234.819 513.729 237.496 515.814 242.714Z" fill="#152F70"/>
<path d="M525.548 273.343L525.959 275.086C527.337 280.976 523.686 286.866 517.796 288.227C511.906 289.617 506.01 285.96 504.637 280.064C504.626 279.985 504.603 279.865 504.58 279.797L504.222 278.031C502.991 272.118 506.796 266.342 512.703 265.117C518.508 263.921 524.204 267.584 525.548 273.343Z" fill="#152F70"/>
<path d="M530.693 305.133L530.836 306.928C531.36 313.165 526.717 318.645 520.48 319.163C514.243 319.676 508.757 315.039 508.239 308.802C508.239 308.728 508.227 308.591 508.222 308.511L508.119 306.711C507.76 300.48 512.534 295.131 518.777 294.772C524.912 294.419 530.186 299.044 530.693 305.133Z" fill="#152F70"/>
<path d="M529.859 338.16L529.602 339.943C528.697 346.249 522.835 350.647 516.512 349.747C510.195 348.835 505.803 342.979 506.72 336.651L506.738 336.531L507.005 334.748C507.985 328.448 513.881 324.125 520.181 325.099C526.447 326.061 530.753 331.9 529.859 338.16Z" fill="#152F70"/>
<path d="M521.627 370.179L520.977 371.848C518.676 377.789 511.989 380.746 506.048 378.444C500.101 376.154 497.133 369.507 499.423 363.56L500.066 361.885C502.345 355.933 509.032 352.942 514.985 355.238C520.938 357.511 523.917 364.192 521.632 370.151L521.627 370.179Z" fill="#152F70"/>
<path d="M506.447 399.492L505.45 400.979C501.953 406.151 494.929 407.512 489.763 404.015C484.642 400.557 483.264 393.648 486.613 388.493L487.598 386.983C491.005 381.748 498.011 380.256 503.246 383.662C508.481 387.085 509.968 394.08 506.556 399.315C506.533 399.372 506.47 399.441 506.447 399.492Z" fill="#152F70"/>
<path d="M485.209 424.641L483.899 425.871C479.53 429.978 472.655 429.756 468.565 425.381C464.543 421.103 464.68 414.387 468.81 410.28L470.086 409.01C474.352 404.767 481.233 404.778 485.471 409.033C489.715 413.288 489.704 420.175 485.454 424.402C485.38 424.481 485.283 424.578 485.209 424.641Z" fill="#152F70"/>
<path d="M233.684 719.604L232.072 718.784C230.397 717.923 229.737 715.862 230.597 714.181C231.457 712.501 233.513 711.834 235.199 712.695C235.325 712.769 235.473 712.854 235.592 712.934L237.073 713.976C238.566 715.013 238.936 717.069 237.894 718.556C236.937 719.923 235.125 720.344 233.684 719.604Z" fill="#152F70"/>
<path d="M206.89 703.922L205.392 702.914C203.017 701.33 202.373 698.123 203.962 695.737C205.535 693.361 208.759 692.735 211.134 694.318C211.271 694.409 211.425 694.506 211.556 694.62L212.945 695.777C215.11 697.56 215.418 700.755 213.635 702.925C211.96 704.947 209.032 705.335 206.89 703.922Z" fill="#152F70"/>
<path d="M181.886 685.301L180.49 684.139C177.699 681.826 177.312 677.697 179.619 674.9C181.932 672.114 186.067 671.721 188.864 674.04C189.012 674.165 189.166 674.302 189.303 674.433L190.59 675.714C193.13 678.226 193.147 682.333 190.618 684.874C188.249 687.266 184.444 687.397 181.886 685.301Z" fill="#152F70"/>
<path d="M158.952 664.003L157.699 662.71C154.765 659.679 154.839 654.866 157.858 651.927C160.883 648.993 165.708 649.062 168.641 652.086C168.761 652.206 168.886 652.343 169 652.462L170.151 653.846C172.856 657.031 172.458 661.798 169.268 664.498C166.22 667.09 161.698 666.828 158.952 664.003Z" fill="#152F70"/>
<path d="M138.338 640.363L137.238 638.962C134.379 635.271 135.028 629.962 138.725 627.103C142.41 624.226 147.719 624.887 150.59 628.578C150.659 628.669 150.75 628.794 150.818 628.885L151.843 630.344C154.532 634.143 153.638 639.389 149.844 642.072C146.159 644.67 141.083 643.889 138.338 640.363Z" fill="#152F70"/>
<path d="M120.231 614.696L119.274 613.17C116.597 608.897 117.89 603.264 122.168 600.587C126.44 597.915 132.074 599.208 134.751 603.48C134.802 603.571 134.865 603.68 134.916 603.765L135.828 605.332C138.334 609.666 136.836 615.237 132.49 617.755C128.235 620.204 122.812 618.826 120.231 614.696Z" fill="#152F70"/>
<path d="M104.967 587.183L104.181 585.56C101.885 580.889 103.828 575.221 108.522 572.925C113.21 570.647 118.86 572.572 121.156 577.26C121.179 577.3 121.218 577.391 121.241 577.437L121.999 579.072C124.181 583.794 122.13 589.399 117.402 591.592C112.748 593.751 107.223 591.769 104.967 587.183Z" fill="#152F70"/>
<path d="M92.5004 558.269L91.8909 556.577C90.0624 551.548 92.6656 545.999 97.7011 544.16C102.725 542.337 108.29 544.94 110.113 549.975L110.728 551.667C112.551 556.697 109.948 562.251 104.924 564.085C99.8827 565.902 94.3346 563.31 92.5061 558.281L92.5004 558.269Z" fill="#152F70"/>
<path d="M83.3154 528.164L82.9052 526.41C81.7204 521.318 84.8819 516.242 89.9686 515.052C94.9129 513.901 99.8573 516.863 101.23 521.711L101.709 523.442C103.127 528.495 100.176 533.735 95.1351 535.142C90.0825 536.566 84.842 533.622 83.4236 528.569C83.3837 528.444 83.3496 528.284 83.3154 528.164Z" fill="#152F70"/>
<path d="M77.5908 497.234L77.38 495.445C76.8047 490.66 80.2281 486.337 85.0073 485.756C89.57 485.232 93.7339 488.331 94.5998 492.762L94.9415 494.534C95.8643 499.302 92.7542 503.91 87.9864 504.832C83.2243 505.761 78.6047 502.64 77.6876 497.872C77.6534 497.672 77.6135 497.445 77.5908 497.234Z" fill="#152F70"/>
<path d="M75.3314 465.939L75.303 464.144C75.2574 459.975 78.5954 456.54 82.765 456.494C86.7012 456.449 89.9651 459.439 90.3695 463.273L90.5575 465.061C90.9847 469.242 87.9429 472.996 83.7505 473.435C79.5467 473.862 75.7985 470.809 75.3713 466.616C75.3485 466.4 75.3314 466.161 75.3314 465.939Z" fill="#152F70"/>
<path d="M76.3554 434.695L76.5035 432.9C76.794 429.517 79.7788 426.999 83.1795 427.29C86.3751 427.569 88.7903 430.257 88.8188 433.402L88.8302 435.196C88.8473 438.654 86.0675 441.462 82.6099 441.485C79.1636 441.507 76.344 438.722 76.3269 435.27C76.3269 435.082 76.3326 434.883 76.3554 434.695Z" fill="#152F70"/>
<path d="M80.335 403.827L80.654 402.061C81.1325 399.406 83.6502 397.652 86.299 398.119C88.8167 398.569 90.5313 400.887 90.2864 403.394L90.1098 405.182C89.8363 407.899 87.4212 409.865 84.704 409.608C81.9983 409.329 80.016 406.914 80.2837 404.197C80.2951 404.083 80.3179 403.946 80.335 403.827Z" fill="#152F70"/>
<path d="M86.9794 373.54L87.4521 371.808C88.0047 369.718 90.1351 368.499 92.2142 369.057C94.2307 369.587 95.444 371.609 95.0225 373.625L94.6408 375.385C94.1908 377.516 92.0946 378.866 89.9642 378.41C87.8452 377.954 86.4838 375.869 86.9395 373.739C86.9452 373.676 86.968 373.597 86.9794 373.54Z" fill="#152F70"/>
<path d="M96.1518 343.999L96.767 342.307C97.3879 340.593 99.2848 339.704 101.005 340.319C102.703 340.934 103.585 342.78 103.021 344.472L102.458 346.186C101.871 347.918 99.9911 348.881 98.2423 348.294C96.4879 347.724 95.548 345.839 96.1176 344.084C96.1347 344.067 96.1518 344.022 96.1518 343.999Z" fill="#152F70"/>
<path d="M107.607 315.307L108.342 313.661C109.094 311.997 111.059 311.268 112.734 312.009C114.392 312.755 115.138 314.726 114.392 316.389L114.375 316.429L113.611 318.058C112.848 319.716 110.877 320.428 109.225 319.659C107.585 318.896 106.867 316.953 107.607 315.307Z" fill="#152F70"/>
<path d="M121.95 287.783L122.884 286.239C123.932 284.524 126.17 283.972 127.879 285.026C129.605 286.074 130.141 288.301 129.098 290.027C129.076 290.055 129.047 290.107 129.019 290.141L128.027 291.645C126.934 293.308 124.695 293.769 123.043 292.659C121.425 291.588 120.953 289.435 121.95 287.783Z" fill="#152F70"/>
<path d="M139.86 262.286L140.993 260.885C142.497 259.022 145.237 258.749 147.094 260.253C148.951 261.756 149.242 264.496 147.726 266.348C147.675 266.416 147.612 266.49 147.556 266.547L146.342 267.874C144.747 269.623 142.036 269.731 140.287 268.142C138.618 266.604 138.447 264.035 139.86 262.286Z" fill="#152F70"/>
<path d="M161.16 239.376L162.464 238.145C164.635 236.129 168.024 236.243 170.04 238.419C172.057 240.572 171.937 243.956 169.778 245.984C169.687 246.075 169.579 246.166 169.477 246.257L168.075 247.373C165.797 249.191 162.464 248.82 160.647 246.547C158.887 244.377 159.161 241.239 161.16 239.376Z" fill="#152F70"/>
<path d="M185.577 219.581L187.064 218.556C190.02 216.505 194.093 217.246 196.144 220.208C198.2 223.176 197.454 227.243 194.486 229.294C194.355 229.396 194.201 229.499 194.065 229.573L192.504 230.473C189.416 232.278 185.463 231.23 183.669 228.143C181.96 225.221 182.849 221.49 185.577 219.581Z" fill="#152F70"/>
<path d="M212.753 203.455L214.365 202.652C218.187 200.761 222.818 202.311 224.715 206.138C226.612 209.961 225.051 214.597 221.229 216.494C221.052 216.585 220.859 216.676 220.688 216.739L219.013 217.406C215.094 218.983 210.628 217.087 209.056 213.162C207.552 209.442 209.221 205.216 212.753 203.455Z" fill="#152F70"/>
<path d="M242.171 191.522L243.885 190.969C248.482 189.517 253.392 192.051 254.851 196.648C256.309 201.251 253.768 206.161 249.171 207.614C249.012 207.676 248.818 207.716 248.653 207.762L246.91 208.206C242.256 209.368 237.54 206.543 236.383 201.9C235.261 197.429 237.847 192.894 242.171 191.522Z" fill="#152F70"/>
<path d="M273.186 184.196L274.963 183.929C280.124 183.137 284.949 186.674 285.752 191.829C286.555 196.984 283.012 201.815 277.846 202.612C277.732 202.635 277.578 202.658 277.452 202.669L275.664 202.874C270.497 203.444 265.838 199.713 265.263 194.552C264.699 189.511 268.23 184.971 273.186 184.196Z" fill="#152F70"/>
<path d="M305.037 181.616L306.837 181.61C312.368 181.599 316.857 186.076 316.868 191.596C316.885 197.121 312.42 201.621 306.888 201.627C306.797 201.627 306.655 201.627 306.558 201.621L304.764 201.564C299.25 201.399 294.921 196.791 295.092 191.288C295.251 185.899 299.683 181.639 305.037 181.616Z" fill="#152F70"/>
<path d="M337.016 183.781L338.799 184.031C344.541 184.863 348.517 190.2 347.685 195.936C346.853 201.678 341.527 205.666 335.78 204.828C335.689 204.811 335.541 204.794 335.444 204.771L333.672 204.464C327.976 203.438 324.182 197.993 325.202 192.296C326.193 186.725 331.451 182.972 337.016 183.781Z" fill="#152F70"/>
<path d="M368.4 190.65L370.12 191.169C375.907 192.917 379.183 199.024 377.422 204.811C375.674 210.598 369.562 213.879 363.774 212.119C363.7 212.097 363.581 212.051 363.507 212.04L361.803 211.464C356.073 209.567 352.968 203.387 354.865 197.662C356.722 192.04 362.749 188.941 368.4 190.65Z" fill="#152F70"/>
<path d="M398.51 202.094L400.134 202.869C405.801 205.535 408.222 212.296 405.551 217.947C402.879 223.609 396.123 226.041 390.461 223.364C390.387 223.33 390.273 223.278 390.199 223.239L388.587 222.424C383.011 219.616 380.766 212.82 383.58 207.232C386.337 201.752 392.979 199.491 398.51 202.094Z" fill="#152F70"/>
<path d="M426.688 219.325L428.1 220.442C433.119 224.395 433.996 231.658 430.048 236.676C426.101 241.706 418.832 242.572 413.82 238.618L413.723 238.55L412.322 237.422C407.349 233.429 406.557 226.166 410.55 221.182C414.515 216.244 421.715 215.429 426.688 219.325Z" fill="#152F70"/>
<path d="M450.305 242.469L451.427 243.865C455.42 248.843 454.64 256.1 449.678 260.099C444.717 264.103 437.466 263.346 433.473 258.39L432.345 256.994C428.329 252.044 429.086 244.765 434.037 240.749C438.992 236.733 446.261 237.491 450.277 242.446L450.305 242.469Z" fill="#152F70"/>
<path d="M468.096 270.267L468.888 271.884C471.622 277.501 469.287 284.257 463.676 286.991C458.122 289.691 451.446 287.424 448.655 281.955L447.84 280.355C445.009 274.778 447.231 267.971 452.796 265.134C458.373 262.303 465.18 264.531 468.005 270.101C468.039 270.136 468.085 270.227 468.096 270.267Z" fill="#152F70"/>
<path d="M479.27 301.243L479.674 302.992C481.041 308.83 477.418 314.663 471.58 316.025C465.855 317.375 460.125 313.883 458.626 308.261L458.165 306.518C456.621 300.707 460.073 294.749 465.878 293.211C471.682 291.668 477.646 295.119 479.19 300.913C479.213 301.004 479.247 301.152 479.27 301.243Z" fill="#152F70"/>
<path d="M608.949 666.555L607.439 667.535C605.856 668.566 603.737 668.099 602.717 666.509C601.697 664.931 602.147 662.824 603.737 661.793C603.862 661.713 604.005 661.628 604.136 661.571L605.776 660.802C607.417 660.033 609.376 660.739 610.151 662.379C610.851 663.9 610.31 665.672 608.949 666.555Z" fill="#152F70"/>
<path d="M581.967 681.912L580.355 682.704C577.791 683.98 574.693 682.932 573.422 680.357C572.152 677.811 573.212 674.712 575.775 673.43C575.923 673.368 576.088 673.288 576.248 673.231L577.934 672.599C580.565 671.619 583.493 672.957 584.473 675.578C585.396 678.033 584.274 680.767 581.967 681.912Z" fill="#152F70"/>
<path d="M553.341 694.256L551.632 694.888C548.237 696.141 544.46 694.409 543.207 691.014C541.948 687.614 543.674 683.843 547.069 682.578C547.263 682.51 547.456 682.453 547.633 682.402L549.393 681.918C552.845 680.978 556.399 683.017 557.339 686.469C558.222 689.727 556.439 693.088 553.341 694.256Z" fill="#152F70"/>
<path d="M523.432 703.472L521.695 703.911C517.599 704.936 513.458 702.464 512.438 698.374C511.413 694.284 513.885 690.143 517.969 689.118C518.135 689.066 518.317 689.026 518.482 689.004L520.254 688.69C524.361 687.938 528.285 690.673 529.031 694.774C529.738 698.721 527.249 702.498 523.432 703.472Z" fill="#152F70"/>
<path d="M492.66 709.504L490.895 709.755C486.269 710.387 482.003 707.169 481.365 702.532C480.721 697.907 483.945 693.629 488.582 693.003C488.69 692.98 488.838 692.963 488.952 692.945L490.724 692.792C495.355 692.364 499.45 695.759 499.878 700.391C500.299 704.873 497.081 708.878 492.66 709.504Z" fill="#152F70"/>
<path d="M461.37 712.347L459.576 712.415C454.535 712.592 450.302 708.661 450.114 703.62C449.944 698.585 453.874 694.352 458.915 694.164C459.012 694.164 459.143 694.164 459.24 694.164H461.046C466.064 694.164 470.137 698.249 470.143 703.273C470.137 708.172 466.235 712.182 461.37 712.347Z" fill="#152F70"/>
<path d="M429.915 711.8L428.115 711.68C422.914 711.327 418.983 706.821 419.342 701.598C419.707 696.403 424.207 692.467 429.413 692.826C429.465 692.826 429.561 692.843 429.613 692.843L431.401 693.002C436.585 693.475 440.413 698.055 439.957 703.244C439.49 708.354 435.013 712.142 429.915 711.8Z" fill="#152F70"/>
<path d="M398.635 708.149L396.869 707.83C391.606 706.89 388.091 701.86 389.025 696.591C389.96 691.322 394.989 687.808 400.264 688.747L402.036 689.061C407.305 689.995 410.819 695.03 409.879 700.288C408.951 705.563 403.915 709.072 398.658 708.149H398.635Z" fill="#152F70"/>
<path d="M367.966 701.04L366.246 700.521C361.25 699.006 358.425 693.732 359.94 688.73C361.416 683.877 366.463 681.08 371.333 682.311L373.076 682.761C378.157 684.059 381.222 689.232 379.923 694.301C378.63 699.394 373.458 702.464 368.376 701.154C368.251 701.137 368.086 701.074 367.966 701.04Z" fill="#152F70"/>
<path d="M338.33 690.547L336.678 689.835C332.247 687.939 330.207 682.806 332.104 678.386C333.916 674.171 338.689 672.109 342.961 673.584L344.664 674.171C349.25 675.749 351.688 680.75 350.104 685.341C348.521 689.932 343.514 692.364 338.934 690.775C338.735 690.713 338.518 690.627 338.33 690.547Z" fill="#152F70"/>
<path d="M310.088 676.848L308.521 675.976C304.875 673.932 303.588 669.323 305.627 665.695C307.553 662.254 311.774 660.921 315.3 662.488L316.946 663.222C320.785 664.948 322.517 669.46 320.785 673.305C319.059 677.167 314.542 678.876 310.697 677.156C310.498 677.064 310.281 676.962 310.088 676.848Z" fill="#152F70"/>
<path d="M283.548 660.346L282.067 659.321C279.282 657.367 278.593 653.522 280.541 650.731C282.375 648.093 285.912 647.353 288.658 648.896L290.213 649.785C293.221 651.505 294.257 655.322 292.554 658.318C290.845 661.314 287.029 662.357 284.027 660.653C283.867 660.562 283.702 660.454 283.548 660.346Z" fill="#152F70"/>
<path d="M258.802 641.463L257.429 640.307C255.373 638.569 255.111 635.51 256.837 633.448C258.483 631.489 261.348 631.17 263.399 632.634L264.857 633.682C267.073 635.271 267.58 638.347 265.991 640.574C264.396 642.779 261.32 643.286 259.098 641.691C259.001 641.634 258.893 641.531 258.802 641.463Z" fill="#152F70"/>
<path d="M235.887 620.563L234.616 619.282C233.09 617.761 233.096 615.306 234.616 613.779C236.086 612.304 238.45 612.258 239.977 613.637L241.315 614.85C242.939 616.303 243.064 618.792 241.6 620.415C240.153 622.022 237.658 622.158 236.041 620.694C235.995 620.66 235.938 620.598 235.887 620.563Z" fill="#152F70"/>
<path d="M214.898 597.852L213.742 596.468C212.569 595.078 212.74 592.993 214.141 591.809C215.508 590.647 217.564 590.8 218.749 592.145L219.945 593.478C221.164 594.867 221.05 596.964 219.672 598.194C218.293 599.407 216.191 599.288 214.961 597.921C214.95 597.898 214.921 597.864 214.898 597.852Z" fill="#152F70"/>
<path d="M195.78 573.586L194.72 572.122C193.655 570.641 194.002 568.568 195.483 567.491C196.959 566.426 199.038 566.768 200.109 568.243C200.114 568.255 200.131 568.289 200.131 568.289L201.163 569.764C202.211 571.262 201.846 573.307 200.348 574.367C198.873 575.409 196.833 575.045 195.78 573.586Z" fill="#152F70"/>
<path d="M179.116 547.401L178.245 545.828C177.288 544.057 177.932 541.847 179.697 540.89C181.463 539.916 183.662 540.571 184.636 542.331C184.653 542.365 184.676 542.416 184.699 542.456L185.502 544.063C186.39 545.84 185.667 548.01 183.89 548.899C182.147 549.759 180.045 549.081 179.116 547.401Z" fill="#152F70"/>
<path d="M165.988 519.142L165.345 517.467C164.49 515.223 165.613 512.722 167.845 511.862C170.073 511.013 172.59 512.124 173.445 514.362C173.479 514.442 173.513 514.533 173.536 514.607L174.083 516.328C174.795 518.583 173.536 520.987 171.28 521.705C169.104 522.383 166.792 521.244 165.988 519.142Z" fill="#152F70"/>
<path d="M156.795 489.248L156.385 487.499C155.719 484.611 157.519 481.734 160.401 481.074C163.283 480.401 166.154 482.207 166.826 485.084C166.855 485.215 166.883 485.351 166.906 485.488L167.174 487.26C167.613 490.148 165.625 492.836 162.742 493.281C159.985 493.708 157.411 491.914 156.795 489.248Z" fill="#152F70"/>
<path d="M151.863 458.198L151.72 456.403C151.418 452.82 154.096 449.659 157.696 449.368C161.29 449.066 164.446 451.749 164.73 455.344C164.748 455.509 164.759 455.691 164.759 455.845L164.765 457.651C164.776 461.222 161.894 464.122 158.328 464.133C154.933 464.156 152.153 461.513 151.863 458.198Z" fill="#152F70"/>
<path d="M151.476 426.595L151.596 424.806C151.863 420.551 155.526 417.321 159.792 417.583C164.048 417.845 167.283 421.513 167.015 425.786C167.004 425.974 166.987 426.19 166.964 426.378L166.702 428.161C166.11 432.336 162.23 435.258 158.055 434.66C154.068 434.091 151.242 430.531 151.476 426.595Z" fill="#152F70"/>
<path d="M155.858 395.157L156.234 393.397C157.271 388.68 161.925 385.695 166.641 386.726C171.352 387.769 174.331 392.428 173.3 397.134C173.26 397.299 173.209 397.492 173.169 397.658L172.679 399.395C171.358 404.003 166.562 406.669 161.959 405.353C157.527 404.094 154.884 399.589 155.858 395.157Z" fill="#152F70"/>
<path d="M165.015 364.631L165.671 362.962C167.562 358.097 173.042 355.682 177.9 357.567C182.771 359.464 185.186 364.938 183.289 369.809C183.249 369.911 183.192 370.059 183.135 370.173L182.423 371.831C180.333 376.593 174.779 378.757 170.011 376.673C165.386 374.645 163.215 369.313 165.015 364.631Z" fill="#152F70"/>
<path d="M178.713 335.762L179.608 334.196C182.353 329.405 188.477 327.753 193.267 330.499C198.063 333.25 199.721 339.368 196.958 344.164C196.918 344.244 196.844 344.369 196.793 344.449L195.859 345.976C192.954 350.669 186.802 352.11 182.12 349.217C177.528 346.386 176.059 340.41 178.713 335.762Z" fill="#152F70"/>
<path d="M196.57 309.149L197.686 307.731C201.269 303.174 207.883 302.405 212.44 305.988C216.997 309.582 217.783 316.184 214.188 320.753C214.126 320.821 214.04 320.935 213.972 321.015L212.816 322.387C209.079 326.813 202.471 327.377 198.045 323.646C193.716 319.995 193.095 313.57 196.57 309.149Z" fill="#152F70"/>
<path d="M218.217 285.413L219.528 284.177C223.936 280.042 230.863 280.264 234.999 284.673C239.134 289.087 238.918 296.014 234.503 300.144C234.44 300.206 234.349 300.28 234.298 300.337L232.954 301.534C228.448 305.549 221.544 305.139 217.534 300.645C213.581 296.213 213.911 289.446 218.217 285.413Z" fill="#152F70"/>
<path d="M243.186 265.043L244.667 264.029C249.811 260.452 256.874 261.739 260.434 266.883C264.006 272.027 262.724 279.09 257.586 282.656C257.523 282.707 257.415 282.77 257.347 282.821L255.832 283.818C250.608 287.23 243.596 285.778 240.173 280.554C236.8 275.416 238.162 268.546 243.186 265.043Z" fill="#152F70"/>
<path d="M272.193 249.259L273.868 248.592C279.792 246.223 286.52 249.094 288.895 255.024C291.27 260.959 288.394 267.686 282.464 270.056L282.344 270.101L280.669 270.757C274.723 273.058 268.035 270.119 265.723 264.166C263.427 258.27 266.332 251.623 272.193 249.259Z" fill="#152F70"/>
<path d="M304.051 240.378L305.817 240.111C312.122 239.137 318.024 243.437 319.003 249.737C319.983 256.032 315.711 261.927 309.417 262.919L307.645 263.198C301.351 264.2 295.427 259.9 294.43 253.611C293.433 247.305 297.722 241.392 304.017 240.39L304.051 240.378Z" fill="#152F70"/>
<path d="M337.018 238.88L338.812 238.994C345.038 239.439 349.726 244.839 349.288 251.065C348.849 257.222 343.546 261.882 337.411 261.552L335.628 261.449C329.379 261.124 324.594 255.793 324.925 249.555C325.261 243.312 330.581 238.533 336.824 238.875C336.87 238.863 336.972 238.875 337.018 238.88Z" fill="#152F70"/>
<path d="M369.435 244.691L371.149 245.203C376.891 246.941 380.127 252.996 378.395 258.732C376.692 264.354 370.813 267.584 365.186 266.057L363.454 265.596C357.649 264.029 354.215 258.065 355.775 252.267C357.342 246.468 363.311 243.027 369.105 244.588C369.201 244.622 369.344 244.662 369.435 244.691Z" fill="#152F70"/>
<path d="M663.589 608.168L662.37 609.49C658.547 613.631 652.082 613.887 647.947 610.082C643.919 606.357 643.583 600.142 647.069 595.99L648.22 594.617C651.877 590.288 658.337 589.747 662.666 593.381C666.995 597.032 667.547 603.497 663.902 607.821C663.794 607.94 663.68 608.06 663.589 608.168Z" fill="#152F70"/>
<path d="M639.092 629.814L637.606 630.822C633.271 633.796 627.352 632.702 624.385 628.356C621.519 624.18 622.459 618.507 626.424 615.442L627.848 614.337C632.029 611.113 638.033 611.888 641.257 616.08C644.481 620.256 643.706 626.271 639.514 629.507C639.389 629.598 639.229 629.717 639.092 629.814Z" fill="#152F70"/>
<path d="M610.5 645.302L608.831 645.969C604.439 647.723 599.443 645.587 597.694 641.184C596.003 636.957 597.945 632.178 601.995 630.258L603.607 629.484C607.919 627.444 613.069 629.284 615.102 633.596C617.141 637.914 615.296 643.058 610.99 645.086C610.836 645.171 610.665 645.234 610.5 645.302Z" fill="#152F70"/>
<path d="M579.309 656.883L577.521 656.985C573.368 657.253 569.802 654.114 569.54 649.967C569.295 646.037 572.143 642.608 575.977 642.05L577.76 641.805C581.907 641.201 585.746 644.089 586.35 648.23C586.936 652.383 584.054 656.216 579.907 656.809C579.708 656.843 579.503 656.866 579.309 656.883Z" fill="#152F70"/>
<path d="M547.404 669.688L545.666 669.204C542.328 668.264 540.375 664.806 541.303 661.457C542.192 658.312 545.325 656.404 548.475 656.968L550.24 657.281C553.704 657.902 556.005 661.217 555.384 664.686C554.763 668.138 551.454 670.445 547.99 669.825C547.797 669.79 547.592 669.745 547.404 669.688Z" fill="#152F70"/>
<path d="M521.061 673.806L519.586 672.775C517.381 671.277 516.823 668.264 518.338 666.059C519.745 664.003 522.491 663.388 524.627 664.555L526.205 665.416C528.597 666.714 529.48 669.705 528.176 672.092C526.877 674.478 523.881 675.367 521.5 674.057C521.357 673.983 521.192 673.892 521.061 673.806Z" fill="#152F70"/>
<path d="M495.274 675.885L494.215 674.444C493.212 673.06 493.509 671.123 494.893 670.098C496.174 669.175 497.929 669.363 498.977 670.485L500.219 671.79C501.438 673.088 501.387 675.111 500.088 676.335C498.789 677.554 496.761 677.497 495.542 676.199C495.445 676.113 495.354 676.005 495.274 675.885Z" fill="#152F70"/>
<path d="M477.967 675.749L477.71 674.894C477.534 674.319 477.858 673.721 478.434 673.55C478.952 673.396 479.499 673.652 479.721 674.137L480.103 674.962C480.365 675.532 480.125 676.204 479.55 676.478C478.98 676.745 478.286 676.506 478.029 675.919C478.006 675.874 477.984 675.8 477.967 675.749Z" fill="#152F70"/>
<path d="M726.353 239.131L726.883 240.845C728.563 246.228 725.556 251.947 720.184 253.628C714.944 255.251 709.396 252.443 707.544 247.351L706.935 245.659C705.015 240.339 707.766 234.46 713.092 232.546C718.418 230.621 724.285 233.372 726.211 238.692C726.251 238.823 726.313 238.994 726.353 239.131Z" fill="#152F70"/>
<path d="M732.846 271.167L732.982 272.955C733.392 278.202 729.479 282.781 724.233 283.174C719.18 283.567 714.749 279.916 714.071 274.949L713.831 273.166C713.125 267.931 716.805 263.118 722.045 262.423C727.28 261.717 732.094 265.396 732.8 270.637C732.817 270.802 732.834 271.007 732.846 271.167Z" fill="#152F70"/>
<path d="M731.973 303.664L731.723 305.447C731.039 310.135 726.687 313.382 722.005 312.704C717.505 312.049 714.332 307.976 714.696 303.51L714.839 301.727C715.22 296.971 719.396 293.439 724.135 293.826C728.897 294.225 732.423 298.389 732.036 303.14C732.024 303.311 732.002 303.493 731.973 303.664Z" fill="#152F70"/>
<path d="M726.413 336.474L725.593 338.08C723.759 341.806 719.253 343.321 715.522 341.487C711.991 339.727 710.447 335.546 711.877 331.946L712.555 330.277C714.11 326.392 718.541 324.506 722.426 326.061C726.311 327.616 728.191 332.037 726.636 335.927C726.567 336.11 726.476 336.298 726.413 336.474Z" fill="#152F70"/>
<path d="M721.539 370.509L720.257 371.768C717.768 374.183 713.792 374.149 711.366 371.666C709.087 369.33 709.002 365.65 711.064 363.207L712.214 361.834C714.493 359.151 718.509 358.809 721.203 361.082C723.88 363.349 724.228 367.376 721.955 370.059C721.824 370.213 721.676 370.373 721.539 370.509Z" fill="#152F70"/>
<path d="M711.937 395.373L710.302 396.148C707.892 397.299 705.016 396.279 703.859 393.881C702.789 391.62 703.62 388.948 705.711 387.672L707.243 386.732C709.55 385.308 712.592 386.049 714.004 388.367C715.417 390.68 714.682 393.716 712.364 395.123C712.233 395.22 712.079 395.299 711.937 395.373Z" fill="#152F70"/>
<path d="M700.844 418.751L699.061 418.939C697.352 419.121 695.831 417.891 695.643 416.187C695.478 414.621 696.515 413.203 698.007 412.849L699.762 412.434C701.493 412.018 703.225 413.083 703.629 414.809C704.045 416.552 702.969 418.272 701.254 418.694C701.129 418.711 700.975 418.728 700.844 418.751Z" fill="#152F70"/>
<path d="M692.069 433.664L691.197 433.453C690.605 433.328 690.252 432.741 690.388 432.16C690.514 431.63 691.009 431.288 691.544 431.328L692.445 431.408C693.06 431.465 693.533 432.017 693.481 432.65C693.424 433.282 692.872 433.749 692.239 433.698C692.194 433.698 692.126 433.675 692.069 433.664Z" fill="#152F70"/>
<path d="M438.139 0.24739L439.894 0.640433C445.39 1.88222 448.842 7.33921 447.612 12.8418C446.399 18.1906 441.187 21.5912 435.855 20.6456L434.083 20.338C428.507 19.3355 424.804 14.0152 425.801 8.44427C426.792 2.87333 432.112 -0.834894 437.683 0.16195C437.832 0.179039 437.997 0.218909 438.139 0.24739Z" fill="#152F70"/>
<path d="M469.134 10.6374L470.758 11.4177C475.503 13.6905 477.508 19.364 475.229 24.1089C473.042 28.683 467.665 30.6995 463.028 28.8027L461.365 28.1192C456.477 26.1084 454.148 20.5146 456.164 15.6272C458.169 10.7456 463.763 8.41582 468.662 10.4266C468.81 10.4836 468.986 10.569 469.134 10.6374Z" fill="#152F70"/>
<path d="M496.835 27.6462L498.254 28.7513C501.973 31.6849 502.611 37.0793 499.672 40.7989C496.864 44.3705 491.754 45.0882 488.069 42.5306L486.593 41.5223C482.669 38.8052 481.689 33.428 484.406 29.5146C487.129 25.5842 492.5 24.6159 496.419 27.333C496.567 27.4298 496.704 27.538 496.835 27.6462Z" fill="#152F70"/>
<path d="M522.469 48.8706L523.449 50.3744C525.756 53.8264 524.822 58.4859 521.364 60.7986C518.072 62.9859 513.686 62.2226 511.288 59.1808L510.183 57.7625C507.585 54.47 508.166 49.6966 511.459 47.1105C514.751 44.5187 519.519 45.0997 522.105 48.3978C522.23 48.5516 522.355 48.7168 522.469 48.8706Z" fill="#152F70"/>
<path d="M549.505 70.1006L549.955 71.8379C550.81 75.2101 548.788 78.6279 545.421 79.4937C542.26 80.3083 539.036 78.5311 537.948 75.5291L537.338 73.843C536.148 70.5278 537.862 66.8765 541.183 65.6859C544.481 64.5011 548.138 66.2157 549.323 69.5195C549.403 69.7075 549.46 69.9126 549.505 70.1006Z" fill="#152F70"/>
<path d="M566.241 90.8577L566.099 92.652C565.894 95.3178 563.57 97.3001 560.91 97.0893C558.432 96.8957 556.524 94.8279 556.461 92.3899L556.421 90.59C556.341 87.8728 558.5 85.6171 561.217 85.5487C563.929 85.4747 566.196 87.6336 566.253 90.3507C566.253 90.5216 566.253 90.6925 566.241 90.8577Z" fill="#152F70"/>
<path d="M580.945 112.15L580.222 113.791C579.527 115.357 577.698 116.064 576.126 115.374C574.685 114.731 573.973 113.124 574.417 111.655L574.924 109.929C575.448 108.22 577.231 107.257 578.929 107.77C580.632 108.277 581.606 110.071 581.093 111.774C581.053 111.883 581.002 112.025 580.945 112.15Z" fill="#152F70"/>
<path d="M589.483 127.205L588.862 127.855C588.452 128.299 587.774 128.31 587.33 127.906C586.942 127.536 586.885 126.938 587.199 126.499L587.717 125.759C588.07 125.252 588.788 125.121 589.306 125.485C589.819 125.85 589.961 126.562 589.597 127.08C589.557 127.114 589.511 127.171 589.483 127.205Z" fill="#152F70"/>
<path d="M87.1494 130.407L88.3626 129.085C92.1848 124.944 98.6387 124.682 102.786 128.498C106.818 132.229 107.155 138.438 103.668 142.58L102.512 143.958C98.8608 148.282 92.3956 148.828 88.0664 145.188C83.743 141.543 83.1905 135.078 86.8361 130.754C86.9329 130.64 87.0525 130.521 87.1494 130.407Z" fill="#152F70"/>
<path d="M111.647 108.761L113.134 107.747C117.475 104.773 123.387 105.873 126.355 110.219C129.22 114.4 128.275 120.068 124.316 123.132L122.892 124.232C118.705 127.456 112.701 126.681 109.471 122.489C106.247 118.308 107.028 112.298 111.214 109.068C111.351 108.972 111.511 108.858 111.647 108.761Z" fill="#152F70"/>
<path d="M140.227 93.2785L141.896 92.6007C146.288 90.8462 151.283 92.9937 153.038 97.3912C154.724 101.612 152.793 106.397 148.737 108.317L147.12 109.091C142.813 111.131 137.664 109.285 135.63 104.979C133.597 100.661 135.437 95.5171 139.743 93.4836C139.897 93.4038 140.073 93.3355 140.227 93.2785Z" fill="#152F70"/>
<path d="M171.42 81.6867L173.214 81.5841C177.366 81.3107 180.927 84.4494 181.194 88.6019C181.439 92.538 178.591 95.9614 174.758 96.5254L172.975 96.7703C168.833 97.3684 164.988 94.4804 164.396 90.3392C163.798 86.1981 166.686 82.3532 170.839 81.7664C171.026 81.7323 171.243 81.7094 171.42 81.6867Z" fill="#152F70"/>
<path d="M203.33 68.8872L205.062 69.3657C208.406 70.3112 210.354 73.7689 209.425 77.1239C208.548 80.2626 205.404 82.1651 202.254 81.6126L200.482 81.2936C197.019 80.667 194.712 77.3632 195.338 73.8942C195.959 70.4422 199.275 68.1296 202.732 68.7505C202.937 68.7846 203.142 68.8359 203.33 68.8872Z" fill="#152F70"/>
<path d="M229.677 64.7687L231.158 65.7941C233.362 67.2979 233.921 70.3112 232.411 72.5099C230.998 74.572 228.258 75.1814 226.117 74.0137L224.539 73.1479C222.146 71.8549 221.269 68.8643 222.574 66.4776C223.867 64.0909 226.863 63.2079 229.25 64.5124C229.386 64.5921 229.54 64.6833 229.677 64.7687Z" fill="#152F70"/>
<path d="M255.455 62.6898L256.515 64.1366C257.523 65.5208 257.221 67.4575 255.837 68.4715C254.555 69.4 252.812 69.2176 251.758 68.0955L250.522 66.7853C249.303 65.4923 249.36 63.4588 250.653 62.2455C251.946 61.0208 253.98 61.0834 255.199 62.3707C255.29 62.4618 255.381 62.5759 255.455 62.6898Z" fill="#152F70"/>
<path d="M272.775 62.8265L273.02 63.681C273.196 64.2563 272.877 64.8601 272.302 65.0366C271.784 65.1904 271.237 64.9284 271.009 64.4386L270.627 63.624C270.365 63.06 270.61 62.3708 271.18 62.1031C271.755 61.841 272.444 62.0803 272.706 62.6556C272.735 62.7069 272.752 62.7752 272.775 62.8265Z" fill="#152F70"/>
<path d="M24.3801 499.45L23.8389 497.735C22.1643 492.358 25.1662 486.633 30.5434 484.953C35.784 483.329 41.3321 486.138 43.1777 491.23L43.7929 492.922C45.7126 498.242 42.9556 504.121 37.6353 506.046C32.315 507.977 26.4421 505.214 24.5225 499.888C24.4769 499.752 24.4257 499.586 24.3801 499.45Z" fill="#152F70"/>
<path d="M17.8823 467.414L17.7456 465.62C17.3411 460.374 21.2487 455.794 26.495 455.395C31.5533 455.008 35.9906 458.653 36.6628 463.62L36.902 465.403C37.6027 470.649 33.9286 475.457 28.6824 476.152C23.4475 476.853 18.6342 473.173 17.9278 467.938C17.9165 467.773 17.8994 467.579 17.8823 467.414Z" fill="#152F70"/>
<path d="M18.7607 434.923L19.0113 433.14C19.6892 428.452 24.0411 425.188 28.7348 425.888C33.2349 426.526 36.4077 430.599 36.0431 435.065L35.9064 436.854C35.5191 441.604 31.3494 445.136 26.5988 444.754C21.8367 444.355 18.3107 440.186 18.7037 435.429C18.7094 435.27 18.7379 435.088 18.7607 434.923Z" fill="#152F70"/>
<path d="M24.3269 402.106L25.1358 400.5C26.9757 396.78 31.4757 395.254 35.2011 397.099C38.7384 398.848 40.2707 403.029 38.8466 406.629L38.1631 408.298C36.6137 412.189 32.1877 414.08 28.3029 412.519C24.4124 410.964 22.5326 406.538 24.0991 402.648C24.1674 402.465 24.2586 402.277 24.3269 402.106Z" fill="#152F70"/>
<path d="M29.1922 368.071L30.4739 366.813C32.9689 364.392 36.9392 364.431 39.3771 366.915C41.6556 369.245 41.7297 372.919 39.6847 375.368L38.5284 376.747C36.2499 379.43 32.234 379.771 29.5454 377.499C26.8625 375.232 26.515 371.204 28.7878 368.527C28.9074 368.368 29.0555 368.214 29.1922 368.071Z" fill="#152F70"/>
<path d="M38.7978 343.207L40.4269 342.432C42.8307 341.276 45.7187 342.302 46.858 344.7C47.946 346.955 47.1029 349.633 45.0181 350.903L43.4801 351.843C41.1617 353.267 38.137 352.532 36.7187 350.208C35.3003 347.89 36.0351 344.853 38.3592 343.441C38.4959 343.367 38.6497 343.281 38.7978 343.207Z" fill="#152F70"/>
<path d="M49.8839 319.836L51.6668 319.642C53.37 319.46 54.8966 320.69 55.0902 322.387C55.2554 323.965 54.2187 325.378 52.7149 325.725L50.9605 326.141C49.2288 326.557 47.4972 325.486 47.087 323.766C46.6769 322.029 47.7478 320.308 49.4737 319.893C49.6048 319.864 49.7529 319.841 49.8839 319.836Z" fill="#152F70"/>
<path d="M58.6632 304.906L59.5348 305.122C60.1215 305.259 60.4747 305.828 60.3436 306.415C60.2183 306.939 59.7171 307.281 59.1816 307.241L58.2816 307.161C57.6607 307.104 57.1879 306.552 57.2449 305.92C57.3075 305.293 57.8487 304.82 58.4867 304.883C58.5436 304.889 58.612 304.9 58.6632 304.906Z" fill="#152F70"/>
<path d="M312.602 738.328L310.847 737.94C305.35 736.698 301.898 731.236 303.129 725.739C304.342 720.384 309.548 716.989 314.88 717.935L316.652 718.243C322.223 719.251 325.925 724.571 324.934 730.148C323.943 735.719 318.623 739.416 313.052 738.425C312.909 738.402 312.738 738.351 312.602 738.328Z" fill="#152F70"/>
<path d="M281.604 727.943L279.986 727.152C275.241 724.89 273.23 719.217 275.514 714.46C277.702 709.892 283.085 707.875 287.716 709.778L289.385 710.456C294.272 712.472 296.602 718.055 294.585 722.953C292.575 727.835 286.981 730.165 282.094 728.154C281.934 728.086 281.757 728.017 281.604 727.943Z" fill="#152F70"/>
<path d="M253.901 710.934L252.483 709.818C248.763 706.896 248.125 701.496 251.059 697.776C253.873 694.199 258.977 693.492 262.662 696.039L264.143 697.053C268.062 699.77 269.042 705.158 266.331 709.066C263.608 712.996 258.236 713.959 254.323 711.242C254.175 711.151 254.032 711.031 253.901 710.934Z" fill="#152F70"/>
<path d="M228.266 689.704L227.286 688.206C224.979 684.749 225.913 680.084 229.371 677.777C232.658 675.595 237.044 676.347 239.453 679.394L240.558 680.813C243.15 684.099 242.569 688.878 239.277 691.465C235.984 694.045 231.216 693.475 228.63 690.166C228.511 690.023 228.374 689.853 228.266 689.704Z" fill="#152F70"/>
<path d="M201.225 668.475L200.775 666.737C199.926 663.365 201.948 659.947 205.315 659.076C208.47 658.261 211.694 660.038 212.788 663.04L213.398 664.726C214.582 668.042 212.874 671.699 209.558 672.878C206.255 674.074 202.603 672.359 201.413 669.056C201.339 668.862 201.282 668.663 201.225 668.475Z" fill="#152F70"/>
<path d="M184.494 647.717L184.637 645.929C184.842 643.263 187.171 641.28 189.82 641.497C192.315 641.674 194.218 643.747 194.275 646.185L194.32 647.985C194.394 650.708 192.241 652.964 189.518 653.021C186.807 653.1 184.54 650.947 184.477 648.224C184.477 648.065 184.483 647.882 184.494 647.717Z" fill="#152F70"/>
<path d="M169.791 626.436L170.509 624.801C171.209 623.235 173.032 622.523 174.61 623.212C176.051 623.856 176.763 625.468 176.319 626.932L175.806 628.658C175.294 630.361 173.499 631.335 171.802 630.817C170.093 630.315 169.13 628.515 169.637 626.818C169.683 626.693 169.734 626.545 169.791 626.436Z" fill="#152F70"/>
<path d="M161.258 611.369L161.879 610.72C162.284 610.282 162.967 610.259 163.406 610.663C163.799 611.033 163.85 611.643 163.537 612.087L163.024 612.828C162.665 613.329 161.948 613.471 161.429 613.101C160.917 612.742 160.78 612.025 161.15 611.512C161.179 611.455 161.224 611.409 161.258 611.369Z" fill="#152F70"/>
<path d="M188.029 393.277L187.704 394.781C186.69 399.469 189.737 404.248 194.522 405.444C199.182 406.612 203.75 403.958 204.929 399.503L205.328 398.022C206.553 393.368 203.699 388.452 198.948 387.034C194.192 385.61 189.35 388.242 188.12 392.901C188.086 393.015 188.051 393.163 188.029 393.277Z" fill="#152F70"/>
<path d="M185.001 421.064L185.029 422.607C185.098 427.13 188.846 430.878 193.409 430.992C197.8 431.106 201.344 427.768 201.526 423.485L201.588 421.946C201.765 417.418 198.205 413.459 193.625 413.083C189.045 412.713 185.189 416.091 185.007 420.614C185.007 420.762 185.001 420.927 185.001 421.064Z" fill="#152F70"/>
<path d="M188.383 448.924L188.742 450.445C189.705 454.432 193.732 457.03 197.725 456.244C201.553 455.486 203.974 451.852 203.296 448.03L203.028 446.503C202.316 442.442 198.42 439.582 194.359 440.135C190.28 440.687 187.574 444.424 188.292 448.48C188.309 448.622 188.349 448.776 188.383 448.924Z" fill="#152F70"/>
<path d="M195.833 476.835L196.659 478.174C198.551 481.29 202.561 482.395 205.637 480.658C208.542 478.989 209.533 475.326 208.012 472.307L207.289 470.9C205.637 467.642 201.661 466.218 198.437 467.721C195.207 469.231 193.937 473.104 195.6 476.368C195.668 476.528 195.759 476.693 195.833 476.835Z" fill="#152F70"/>
<path d="M202.789 505.824L203.991 506.861C206.343 508.826 209.767 508.615 211.675 506.371C213.458 504.274 213.224 501.113 211.254 499.108L210.143 497.986C207.961 495.776 204.464 495.662 202.328 497.735C200.197 499.797 200.226 503.261 202.396 505.465C202.516 505.596 202.652 505.71 202.789 505.824Z" fill="#152F70"/>
<path d="M213.091 526.752L214.56 527.338C216.731 528.221 219.14 527.219 219.932 525.106C220.684 523.118 219.744 520.862 217.841 519.859L216.44 519.124C214.327 517.997 211.764 518.766 210.738 520.833C209.696 522.873 210.579 525.453 212.692 526.558C212.817 526.626 212.954 526.689 213.091 526.752Z" fill="#152F70"/>
<path d="M224.549 546.313L226.099 546.409C227.586 546.484 228.804 545.361 228.833 543.892C228.844 542.53 227.836 541.363 226.52 541.123L224.971 540.85C223.444 540.571 222.037 541.568 221.821 543.066C221.604 544.581 222.67 546.011 224.191 546.29C224.304 546.301 224.435 546.313 224.549 546.313Z" fill="#152F70"/>
<path d="M233.334 558.736L234.068 558.514C234.558 558.377 234.826 557.859 234.661 557.358C234.513 556.913 234.051 556.646 233.596 556.714L232.821 556.822C232.291 556.896 231.927 557.392 232.029 557.927C232.132 558.463 232.644 558.85 233.186 558.765C233.237 558.759 233.282 558.748 233.334 558.736Z" fill="#152F70"/>
<path d="M303.516 542.929L304.649 543.955C308.204 547.179 313.871 546.928 317.3 543.391C320.638 539.933 320.616 534.653 317.352 531.406L316.275 530.323C312.857 526.934 307.167 526.951 303.567 530.358C299.967 533.758 299.819 539.267 303.231 542.662C303.31 542.736 303.424 542.832 303.516 542.929Z" fill="#152F70"/>
<path d="M326.059 559.437L327.414 560.189C331.356 562.382 336.483 561.015 338.864 557.119C341.154 553.37 340.043 548.637 336.414 546.341L335.11 545.51C331.276 543.094 326.07 544.194 323.461 547.982C320.852 551.758 321.843 556.788 325.671 559.215C325.802 559.283 325.939 559.363 326.059 559.437Z" fill="#152F70"/>
<path d="M351.876 570.436L353.374 570.886C357.316 572.048 361.571 569.861 362.881 566.005C364.14 562.308 362.203 558.406 358.558 557.084L357.099 556.549C353.22 555.131 348.806 557.079 347.251 560.878C345.684 564.689 347.564 568.893 351.437 570.294C351.58 570.357 351.734 570.396 351.876 570.436Z" fill="#152F70"/>
<path d="M379.779 577.944L381.357 577.893C385.003 577.813 387.959 574.902 387.988 571.353C387.999 568.004 385.327 565.321 381.944 565.127L380.372 565.048C376.715 564.848 373.496 567.577 373.194 571.125C372.887 574.674 375.61 577.71 379.267 577.91C379.426 577.933 379.62 577.933 379.779 577.944Z" fill="#152F70"/>
<path d="M408.367 586.414L409.853 585.879C412.73 584.831 414.262 581.76 413.277 578.986C412.343 576.394 409.489 575.022 406.772 575.722L405.239 576.115C402.243 576.907 400.386 579.875 401.115 582.757C401.839 585.64 404.852 587.354 407.848 586.568C408.025 586.534 408.196 586.471 408.367 586.414Z" fill="#152F70"/>
<path d="M431.629 587.952L432.877 586.978C434.728 585.543 435.058 582.957 433.623 581.202C432.284 579.567 429.858 579.248 428.04 580.388L426.702 581.242C424.674 582.507 424.064 585.104 425.329 587.035C426.577 588.96 429.248 589.479 431.265 588.203C431.39 588.129 431.515 588.043 431.629 587.952Z" fill="#152F70"/>
<path d="M454.313 587.821L455.161 586.517C455.97 585.264 455.612 583.652 454.347 582.888C453.174 582.193 451.658 582.49 450.792 583.509L449.779 584.711C448.776 585.89 448.935 587.616 450.12 588.545C451.317 589.49 453.099 589.285 454.091 588.106C454.17 588.021 454.25 587.912 454.313 587.821Z" fill="#152F70"/>
<path d="M469.454 586.414L469.625 585.668C469.744 585.172 469.437 584.682 468.93 584.58C468.468 584.489 467.995 584.745 467.83 585.172L467.534 585.89C467.335 586.391 467.58 586.95 468.092 587.132C468.611 587.314 469.203 587.069 469.397 586.557C469.425 586.517 469.442 586.466 469.454 586.414Z" fill="#152F70"/>
<path d="M490.851 517.729L492.309 517.267C496.883 515.792 499.492 510.762 498.142 506.017C496.826 501.403 492.235 498.783 487.786 499.985L486.311 500.378C481.674 501.643 478.832 506.57 479.988 511.395C481.133 516.214 485.833 519.096 490.481 517.837C490.595 517.814 490.737 517.769 490.851 517.729Z" fill="#152F70"/>
<path d="M516.431 506.456L517.747 505.659C521.631 503.34 523.01 498.213 520.817 494.203C518.721 490.347 514.055 488.951 510.256 490.939L508.889 491.657C504.879 493.765 503.227 498.834 505.203 502.976C507.174 507.122 512.022 508.78 516.038 506.678C516.157 506.604 516.311 506.536 516.431 506.456Z" fill="#152F70"/>
<path d="M538.86 489.607L539.999 488.53C542.978 485.704 543.212 480.92 540.529 477.861C537.96 474.916 533.608 474.648 530.634 477.143L529.438 478.14C526.282 480.789 525.758 485.585 528.265 488.832C530.777 492.084 535.368 492.563 538.518 489.908C538.643 489.823 538.757 489.709 538.86 489.607Z" fill="#152F70"/>
<path d="M559.308 469.191L560.06 467.801C561.82 464.606 560.766 460.584 557.713 458.801C554.819 457.115 551.157 458.083 549.294 460.914L548.445 462.247C546.44 465.306 547.198 469.464 550.12 471.492C553.042 473.543 557.035 472.7 559.035 469.63C559.12 469.493 559.223 469.328 559.308 469.191Z" fill="#152F70"/>
<path d="M580.95 448.679L581.235 447.124C581.765 444.111 579.868 441.251 576.986 440.721C574.263 440.22 571.648 442.003 570.891 444.709L570.469 446.235C569.649 449.226 571.301 452.302 574.161 453.122C577.014 453.937 580.005 452.182 580.831 449.203C580.888 449.026 580.916 448.844 580.95 448.679Z" fill="#152F70"/>
<path d="M593.91 429.289L593.688 427.728C593.363 425.41 591.295 423.821 589.068 424.191C586.972 424.533 585.485 426.481 585.571 428.622L585.628 430.212C585.719 432.604 587.661 434.427 589.957 434.296C592.252 434.176 594.041 432.114 593.944 429.739C593.944 429.596 593.927 429.437 593.91 429.289Z" fill="#152F70"/>
<path d="M605.129 409.58L604.434 408.196C603.756 406.874 602.166 406.379 600.885 407.091C599.694 407.757 599.193 409.21 599.643 410.474L600.178 411.961C600.697 413.425 602.263 414.143 603.67 413.579C605.089 413.015 605.795 411.363 605.277 409.91C605.237 409.802 605.185 409.682 605.129 409.58Z" fill="#152F70"/>
<path d="M611.495 395.767L610.931 395.254C610.572 394.889 609.98 394.924 609.638 395.305C609.33 395.658 609.319 396.194 609.604 396.564L610.082 397.173C610.413 397.595 611.028 397.658 611.432 397.299C611.854 396.951 611.934 396.308 611.592 395.892C611.569 395.846 611.529 395.812 611.495 395.767Z" fill="#152F70"/>
<path d="M562.706 342.9L563.025 341.407C564.045 336.713 560.991 331.934 556.212 330.727C551.558 329.565 546.99 332.231 545.8 336.685L545.407 338.155C544.176 342.808 547.03 347.73 551.786 349.143C556.531 350.567 561.379 347.935 562.615 343.281C562.643 343.167 562.672 343.013 562.706 342.9Z" fill="#152F70"/>
<path d="M565.731 315.102L565.702 313.564C565.634 309.041 561.886 305.287 557.323 305.179C552.931 305.071 549.388 308.397 549.212 312.687L549.144 314.23C548.967 318.765 552.527 322.729 557.101 323.094C561.681 323.458 565.537 320.086 565.725 315.563C565.731 315.421 565.731 315.25 565.731 315.102Z" fill="#152F70"/>
<path d="M562.344 287.264L561.985 285.743C561.028 281.75 557.001 279.159 553.008 279.945C549.169 280.702 546.759 284.331 547.437 288.147L547.705 289.674C548.411 293.735 552.307 296.589 556.369 296.048C560.442 295.495 563.159 291.764 562.43 287.709C562.43 287.561 562.384 287.407 562.344 287.264Z" fill="#152F70"/>
<path d="M554.903 259.341L554.071 257.997C552.18 254.887 548.175 253.776 545.105 255.53C542.2 257.194 541.203 260.839 542.724 263.875L543.453 265.277C545.105 268.546 549.081 269.965 552.305 268.455C555.54 266.94 556.805 263.072 555.147 259.803C555.062 259.66 554.971 259.484 554.903 259.341Z" fill="#152F70"/>
<path d="M547.94 230.342L546.738 229.328C544.386 227.357 540.968 227.568 539.066 229.801C537.283 231.908 537.511 235.07 539.481 237.08L540.586 238.208C542.768 240.413 546.271 240.521 548.402 238.453C550.532 236.38 550.515 232.911 548.339 230.712C548.214 230.581 548.077 230.461 547.94 230.342Z" fill="#152F70"/>
<path d="M537.641 209.436L536.177 208.844C534.001 207.955 531.603 208.963 530.811 211.077C530.048 213.059 530.994 215.321 532.891 216.323L534.303 217.058C536.428 218.186 538.974 217.405 540.011 215.349C541.048 213.298 540.165 210.729 538.057 209.624C537.915 209.556 537.767 209.488 537.641 209.436Z" fill="#152F70"/>
<path d="M526.186 189.864L524.631 189.773C523.144 189.699 521.925 190.821 521.903 192.291C521.885 193.658 522.894 194.82 524.21 195.059L525.753 195.333C527.291 195.617 528.698 194.621 528.909 193.117C529.125 191.607 528.054 190.178 526.539 189.904C526.425 189.876 526.3 189.864 526.186 189.864Z" fill="#152F70"/>
<path d="M517.399 177.446L516.67 177.669C516.175 177.805 515.913 178.324 516.066 178.813C516.22 179.258 516.676 179.537 517.137 179.474L517.912 179.36C518.442 179.292 518.801 178.791 518.709 178.255C518.607 177.714 518.1 177.332 517.559 177.418C517.502 177.418 517.456 177.435 517.399 177.446Z" fill="#152F70"/>
<path d="M447.215 193.259L446.082 192.228C442.521 189.004 436.859 189.26 433.424 192.792C430.086 196.244 430.109 201.524 433.379 204.783L434.455 205.865C437.873 209.249 443.558 209.237 447.158 205.831C450.758 202.424 450.901 196.916 447.489 193.527C447.426 193.436 447.312 193.333 447.215 193.259Z" fill="#152F70"/>
<path d="M424.666 176.74L423.316 175.988C419.368 173.789 414.247 175.156 411.866 179.053C409.576 182.812 410.693 187.534 414.316 189.836L415.62 190.662C419.454 193.082 424.666 191.977 427.269 188.201C429.883 184.419 428.892 179.389 425.064 176.968C424.928 176.894 424.797 176.814 424.666 176.74Z" fill="#152F70"/>
<path d="M398.861 165.746L397.363 165.296C393.427 164.129 389.166 166.322 387.856 170.184C386.597 173.88 388.54 177.777 392.174 179.104L393.638 179.628C397.511 181.046 401.932 179.104 403.487 175.316C405.048 171.505 403.168 167.29 399.289 165.883C399.152 165.826 398.998 165.78 398.861 165.746Z" fill="#152F70"/>
<path d="M370.955 158.239L369.382 158.284C365.737 158.364 362.78 161.286 362.758 164.823C362.741 168.161 365.412 170.85 368.79 171.044L370.374 171.118C374.025 171.323 377.243 168.583 377.557 165.046C377.864 161.48 375.136 158.444 371.479 158.256C371.308 158.25 371.12 158.25 370.955 158.239Z" fill="#152F70"/>
<path d="M342.37 149.757L340.878 150.292C338.007 151.346 336.474 154.411 337.454 157.173C338.383 159.771 341.236 161.155 343.959 160.454L345.497 160.061C348.499 159.275 350.345 156.296 349.616 153.408C348.892 150.537 345.879 148.817 342.883 149.609C342.706 149.643 342.535 149.706 342.37 149.757Z" fill="#152F70"/>
<path d="M319.101 148.23L317.859 149.204C316.008 150.634 315.677 153.232 317.113 154.963C318.451 156.615 320.878 156.928 322.695 155.783L324.039 154.929C326.067 153.664 326.671 151.061 325.412 149.136C324.159 147.216 321.488 146.687 319.477 147.968C319.346 148.048 319.22 148.145 319.101 148.23Z" fill="#152F70"/>
<path d="M296.424 148.355L295.57 149.666C294.761 150.919 295.114 152.531 296.384 153.283C297.558 153.978 299.067 153.693 299.939 152.668L300.947 151.471C301.955 150.287 301.796 148.561 300.605 147.638C299.409 146.687 297.626 146.897 296.635 148.071C296.561 148.156 296.487 148.264 296.424 148.355Z" fill="#152F70"/>
<path d="M281.278 149.757L281.107 150.509C280.982 151.01 281.301 151.489 281.808 151.597C282.269 151.694 282.736 151.432 282.901 151.004L283.197 150.275C283.397 149.785 283.152 149.222 282.633 149.039C282.115 148.857 281.528 149.108 281.329 149.609C281.306 149.666 281.289 149.711 281.278 149.757Z" fill="#152F70"/>
<path d="M259.887 218.459L258.429 218.921C253.855 220.39 251.252 225.414 252.596 230.154C253.918 234.773 258.503 237.388 262.958 236.197L264.427 235.799C269.07 234.534 271.907 229.601 270.756 224.776C269.611 219.952 264.906 217.069 260.263 218.328C260.149 218.368 260.001 218.408 259.887 218.459Z" fill="#152F70"/>
<path d="M234.304 229.727L232.976 230.518C229.103 232.842 227.73 237.958 229.906 241.968C232.014 245.83 236.668 247.237 240.467 245.237L241.84 244.525C245.85 242.418 247.502 237.354 245.525 233.207C243.554 229.06 238.707 227.397 234.697 229.51C234.571 229.567 234.429 229.647 234.304 229.727Z" fill="#152F70"/>
<path d="M211.879 246.576L210.739 247.647C207.766 250.484 207.532 255.263 210.215 258.322C212.784 261.267 217.136 261.534 220.098 259.045L221.295 258.054C224.456 255.4 224.974 250.609 222.474 247.356C219.956 244.092 215.365 243.62 212.215 246.274C212.101 246.36 211.981 246.474 211.879 246.576Z" fill="#152F70"/>
<path d="M191.423 266.991L190.677 268.37C188.922 271.565 189.976 275.598 193.029 277.376C195.923 279.062 199.574 278.093 201.443 275.262L202.297 273.929C204.297 270.871 203.545 266.712 200.623 264.667C197.695 262.628 193.707 263.465 191.708 266.541C191.611 266.684 191.514 266.843 191.423 266.991Z" fill="#152F70"/>
<path d="M169.787 287.504L169.502 289.059C168.972 292.072 170.869 294.932 173.757 295.461C176.469 295.957 179.1 294.174 179.846 291.468L180.274 289.936C181.094 286.951 179.442 283.864 176.571 283.043C173.717 282.235 170.732 283.989 169.912 286.968C169.855 287.15 169.821 287.338 169.787 287.504Z" fill="#152F70"/>
<path d="M156.83 306.882L157.052 308.454C157.371 310.773 159.445 312.351 161.672 311.98C163.768 311.644 165.255 309.708 165.169 307.566L165.107 305.971C165.015 303.584 163.067 301.75 160.766 301.892C158.476 302.006 156.688 304.063 156.79 306.449C156.801 306.586 156.813 306.74 156.83 306.882Z" fill="#152F70"/>
<path d="M145.61 326.591L146.317 327.987C146.994 329.314 148.567 329.81 149.86 329.092C151.044 328.425 151.551 326.962 151.101 325.697L150.566 324.227C150.048 322.763 148.475 322.04 147.074 322.604C145.662 323.168 144.955 324.814 145.474 326.261C145.502 326.369 145.553 326.489 145.61 326.591Z" fill="#152F70"/>
<path d="M139.245 340.405L139.809 340.935C140.174 341.282 140.761 341.259 141.102 340.872C141.416 340.524 141.421 339.983 141.136 339.624L140.658 339.003C140.328 338.588 139.718 338.519 139.302 338.872C138.886 339.237 138.807 339.869 139.148 340.291C139.171 340.331 139.205 340.371 139.245 340.405Z" fill="#152F70"/>
</g>
</svg>
