<svg width="24" height="24" viewBox="0 0 24 24" fill="none" xmlns="http://www.w3.org/2000/svg">
<path d="M2 9L2 15C2 20 4 22 9 22L15 22C20 22 22 20 22 15L22 9C22 4 20 2 15 2L9 2C4 2 2 4 2 9Z" stroke="black" stroke-width="1.5" stroke-linecap="round" stroke-linejoin="round"/>
<path d="M15.0303 9.60008L12.5403 7.11008C12.2503 6.82008 11.7603 6.82008 11.4703 7.11008L8.98027 9.60008" stroke="black" stroke-width="1.5" stroke-miterlimit="10" stroke-linecap="round" stroke-linejoin="round"/>
<path d="M15.0303 14.3999L12.5403 16.8899C12.2503 17.1799 11.7603 17.1799 11.4703 16.8899L8.98027 14.3999" stroke="black" stroke-width="1.5" stroke-miterlimit="10" stroke-linecap="round" stroke-linejoin="round"/>
</svg>
